<svg xmlns="http://www.w3.org/2000/svg" viewBox="0 0 1200 600" role="img" aria-label="Noir placeholder image">
  <defs>
    <linearGradient id="g" x1="0" x2="0" y1="0" y2="1">
      <stop offset="0" stop-color="#1a1a1a" />
      <stop offset="1" stop-color="#0a0a0a" />
    </linearGradient>
    <radialGradient id="v" cx="50%" cy="40%" r="70%">
      <stop offset="0" stop-color="#ffffff" stop-opacity="0.08" />
      <stop offset="1" stop-color="#000000" stop-opacity="0" />
    </radialGradient>
    <filter id="grain">
      <feTurbulence type="fractalNoise" baseFrequency="0.9" numOctaves="1" stitchTiles="stitch" />
      <feColorMatrix values="0 0 0 0 0  0 0 0 0 0  0 0 0 0 0  0 0 0 0.08 0" />
    </filter>
    <mask id="fade">
      <rect width="1200" height="600" fill="url(#v)" />
    </mask>
  </defs>

  <rect width="1200" height="600" fill="url(#g)" />
  <rect width="1200" height="600" filter="url(#grain)" opacity="0.25" />

  <!-- Silhouette band -->
  <g fill="#0d0d0d">
    <rect x="0" y="260" width="1200" height="240" />
  </g>

  <!-- Three abstract silhouettes -->
  <g fill="#151515" mask="url(#fade)">
    <path d="M220,430c0,-70 40,-120 100,-120s100,50 100,120v20h-200z" />
    <path d="M520,420c0,-80 50,-140 130,-140s130,60 130,140v30h-260z" />
    <path d="M900,430c0,-70 40,-120 100,-120s100,50 100,120v20h-200z" />
  </g>

  <!-- Faux window label -->
  <g transform="translate(160,440)">
    <rect x="0" y="0" rx="6" ry="6" width="380" height="48" fill="#0e0e0e" stroke="#3a3a3a" />
    <text x="16" y="30" fill="#e8e8e8" font-family="SFMono-Regular,Consolas,Menlo,monospace" font-size="20" letter-spacing="2">PROJECT.EXE</text>
    <rect x="332" y="10" width="18" height="18" fill="none" stroke="#bbbbbb" />
    <rect x="356" y="10" width="18" height="18" fill="none" stroke="#bbbbbb" />
  </g>

  <!-- Vignette -->
  <rect width="1200" height="600" fill="url(#v)" />
</svg>

