<svg width="1024" height="1024" viewBox="0 0 1024 1024" fill="none" xmlns="http://www.w3.org/2000/svg">
<circle cx="512" cy="512" r="512" fill="#DCDCDC"/>
<path d="M756.322 756.022L708.797 756.023L708.577 348.176L283.548 773.204L249.818 739.352L674.495 314.675L266.99 314.455L266.99 266.666H756.322V756.022Z" fill="black"/>
<path d="M756.322 756.022L756.322 771.022L771.322 771.022V756.022L756.322 756.022ZM708.797 756.023L693.797 756.031L693.806 771.023L708.798 771.023L708.797 756.023ZM708.577 348.176L723.577 348.168L723.557 311.982L697.97 337.569L708.577 348.176ZM283.548 773.204L272.922 783.792L283.529 794.437L294.155 783.811L283.548 773.204ZM249.818 739.352L239.212 728.745L228.624 739.332L239.192 749.939L249.818 739.352ZM674.495 314.675L685.101 325.282L710.688 299.695L674.503 299.675L674.495 314.675ZM266.99 314.455L251.99 314.455L251.99 329.447L266.982 329.455L266.99 314.455ZM266.99 266.666L266.99 251.666L251.99 251.666V266.666H266.99ZM756.322 266.666H771.322V251.666L756.322 251.666V266.666ZM756.322 756.022L756.322 741.022L708.797 741.023L708.797 756.023L708.798 771.023L756.322 771.022L756.322 756.022ZM708.797 756.023L723.797 756.015L723.577 348.168L708.577 348.176L693.577 348.184L693.797 756.031L708.797 756.023ZM708.577 348.176L697.97 337.569L272.941 762.598L283.548 773.204L294.155 783.811L719.183 358.782L708.577 348.176ZM283.548 773.204L294.174 762.617L260.444 728.764L249.818 739.352L239.192 749.939L272.922 783.792L283.548 773.204ZM249.818 739.352L260.425 749.958L685.101 325.282L674.495 314.675L663.888 304.069L239.212 728.745L249.818 739.352ZM674.495 314.675L674.503 299.675L266.999 299.455L266.99 314.455L266.982 329.455L674.486 329.675L674.495 314.675ZM266.99 314.455H281.99V266.666L266.99 266.666H251.99L251.99 314.455L266.99 314.455ZM266.99 266.666V281.666H756.322L756.322 266.666V251.666L266.99 251.666L266.99 266.666ZM756.322 266.666L741.322 266.666V756.022H756.322L771.322 756.022V266.666H756.322Z" fill="black"/>
</svg>
