<svg width="500" height="1134" viewBox="0 0 500 1134" fill="none" xmlns="http://www.w3.org/2000/svg">
<mask id="mask0_2340_6910" style="mask-type:alpha" maskUnits="userSpaceOnUse" x="0" y="0" width="500" height="1134">
<circle cx="17.6056" cy="17.6056" r="17.6056" transform="matrix(-1 0 0 1 500 0)" fill="black"/>
<circle cx="17.6056" cy="17.6056" r="17.6056" transform="matrix(-1 0 0 1 457.746 0)" fill="black"/>
<circle cx="17.6056" cy="17.6056" r="17.6056" transform="matrix(-1 0 0 1 415.492 0)" fill="black"/>
<circle cx="17.6056" cy="17.6056" r="17.6056" transform="matrix(-1 0 0 1 373.238 0)" fill="black"/>
<circle cx="17.6056" cy="17.6056" r="17.6056" transform="matrix(-1 0 0 1 330.984 0)" fill="black"/>
<circle cx="17.6056" cy="17.6056" r="17.6056" transform="matrix(-1 0 0 1 288.73 0)" fill="black"/>
<circle cx="17.6056" cy="17.6056" r="17.6056" transform="matrix(-1 0 0 1 246.48 0)" fill="black"/>
<circle cx="17.6056" cy="17.6056" r="17.6056" transform="matrix(-1 0 0 1 204.227 0)" fill="black"/>
<circle cx="17.6056" cy="17.6056" r="17.6056" transform="matrix(-1 0 0 1 161.973 0)" fill="black"/>
<circle cx="17.6056" cy="17.6056" r="17.6056" transform="matrix(-1 0 0 1 119.719 0)" fill="black"/>
<circle cx="17.6056" cy="17.6056" r="17.6056" transform="matrix(-1 0 0 1 77.4648 0)" fill="black"/>
<circle cx="17.6056" cy="17.6056" r="17.6056" transform="matrix(-1 0 0 1 35.2109 0)" fill="black"/>
<circle cx="17.6056" cy="17.6056" r="17.6056" transform="matrix(-1 0 0 1 500 42.2539)" fill="black"/>
<circle cx="17.6056" cy="17.6056" r="17.6056" transform="matrix(-1 0 0 1 457.746 42.2539)" fill="black"/>
<circle cx="17.6056" cy="17.6056" r="17.6056" transform="matrix(-1 0 0 1 415.492 42.2539)" fill="black"/>
<circle cx="17.6056" cy="17.6056" r="17.6056" transform="matrix(-1 0 0 1 373.238 42.2539)" fill="black"/>
<circle cx="17.6056" cy="17.6056" r="17.6056" transform="matrix(-1 0 0 1 330.984 42.2539)" fill="black"/>
<circle cx="17.6056" cy="17.6056" r="17.6056" transform="matrix(-1 0 0 1 288.73 42.2539)" fill="black"/>
<circle cx="17.6056" cy="17.6056" r="17.6056" transform="matrix(-1 0 0 1 246.48 42.2539)" fill="black"/>
<circle cx="17.6056" cy="17.6056" r="17.6056" transform="matrix(-1 0 0 1 204.227 42.2539)" fill="black"/>
<circle cx="17.6056" cy="17.6056" r="17.6056" transform="matrix(-1 0 0 1 161.973 42.2539)" fill="black"/>
<circle cx="17.6056" cy="17.6056" r="17.6056" transform="matrix(-1 0 0 1 119.719 42.2539)" fill="black"/>
<circle cx="17.6056" cy="17.6056" r="17.6056" transform="matrix(-1 0 0 1 77.4648 42.2539)" fill="black"/>
<circle cx="17.6056" cy="17.6056" r="17.6056" transform="matrix(-1 0 0 1 35.2109 42.2539)" fill="black"/>
<circle cx="17.6056" cy="17.6056" r="17.6056" transform="matrix(-1 0 0 1 500 84.5078)" fill="black"/>
<circle cx="17.6056" cy="17.6056" r="17.6056" transform="matrix(-1 0 0 1 457.746 84.5078)" fill="black"/>
<circle cx="17.6056" cy="17.6056" r="17.6056" transform="matrix(-1 0 0 1 415.492 84.5078)" fill="black"/>
<circle cx="17.6056" cy="17.6056" r="17.6056" transform="matrix(-1 0 0 1 373.238 84.5078)" fill="black"/>
<circle cx="17.6056" cy="17.6056" r="17.6056" transform="matrix(-1 0 0 1 330.984 84.5078)" fill="black"/>
<circle cx="17.6056" cy="17.6056" r="17.6056" transform="matrix(-1 0 0 1 288.73 84.5078)" fill="black"/>
<circle cx="17.6056" cy="17.6056" r="17.6056" transform="matrix(-1 0 0 1 246.48 84.5078)" fill="black"/>
<circle cx="17.6056" cy="17.6056" r="17.6056" transform="matrix(-1 0 0 1 204.227 84.5078)" fill="black"/>
<circle cx="17.6056" cy="17.6056" r="17.6056" transform="matrix(-1 0 0 1 161.973 84.5078)" fill="black"/>
<circle cx="17.6056" cy="17.6056" r="17.6056" transform="matrix(-1 0 0 1 119.719 84.5078)" fill="black"/>
<circle cx="17.6056" cy="17.6056" r="17.6056" transform="matrix(-1 0 0 1 77.4648 84.5078)" fill="black"/>
<circle cx="17.6056" cy="17.6056" r="17.6056" transform="matrix(-1 0 0 1 35.2109 84.5078)" fill="black"/>
<circle cx="17.6056" cy="17.6056" r="17.6056" transform="matrix(-1 0 0 1 500 126.76)" fill="black"/>
<circle cx="17.6056" cy="17.6056" r="17.6056" transform="matrix(-1 0 0 1 457.746 126.76)" fill="black"/>
<circle cx="17.6056" cy="17.6056" r="17.6056" transform="matrix(-1 0 0 1 415.492 126.76)" fill="black"/>
<circle cx="17.6056" cy="17.6056" r="17.6056" transform="matrix(-1 0 0 1 373.238 126.76)" fill="black"/>
<circle cx="17.6056" cy="17.6056" r="17.6056" transform="matrix(-1 0 0 1 330.984 126.76)" fill="black"/>
<circle cx="17.6056" cy="17.6056" r="17.6056" transform="matrix(-1 0 0 1 288.73 126.76)" fill="black"/>
<circle cx="17.6056" cy="17.6056" r="17.6056" transform="matrix(-1 0 0 1 246.48 126.76)" fill="black"/>
<circle cx="17.6056" cy="17.6056" r="17.6056" transform="matrix(-1 0 0 1 204.227 126.76)" fill="black"/>
<circle cx="17.6056" cy="17.6056" r="17.6056" transform="matrix(-1 0 0 1 161.973 126.76)" fill="black"/>
<circle cx="17.6056" cy="17.6056" r="17.6056" transform="matrix(-1 0 0 1 119.719 126.76)" fill="black"/>
<circle cx="17.6056" cy="17.6056" r="17.6056" transform="matrix(-1 0 0 1 77.4648 126.76)" fill="black"/>
<circle cx="17.6056" cy="17.6056" r="17.6056" transform="matrix(-1 0 0 1 35.2109 126.76)" fill="black"/>
<circle cx="17.6056" cy="17.6056" r="17.6056" transform="matrix(-1 0 0 1 500 169.014)" fill="black"/>
<circle cx="17.6056" cy="17.6056" r="17.6056" transform="matrix(-1 0 0 1 457.746 169.014)" fill="black"/>
<circle cx="17.6056" cy="17.6056" r="17.6056" transform="matrix(-1 0 0 1 415.492 169.014)" fill="black"/>
<circle cx="17.6056" cy="17.6056" r="17.6056" transform="matrix(-1 0 0 1 373.238 169.014)" fill="black"/>
<circle cx="17.6056" cy="17.6056" r="17.6056" transform="matrix(-1 0 0 1 330.984 169.014)" fill="black"/>
<circle cx="17.6056" cy="17.6056" r="17.6056" transform="matrix(-1 0 0 1 288.73 169.014)" fill="black"/>
<circle cx="17.6056" cy="17.6056" r="17.6056" transform="matrix(-1 0 0 1 246.48 169.014)" fill="black"/>
<circle cx="17.6056" cy="17.6056" r="17.6056" transform="matrix(-1 0 0 1 204.227 169.014)" fill="black"/>
<circle cx="17.6056" cy="17.6056" r="17.6056" transform="matrix(-1 0 0 1 161.973 169.014)" fill="black"/>
<circle cx="17.6056" cy="17.6056" r="17.6056" transform="matrix(-1 0 0 1 119.719 169.014)" fill="black"/>
<circle cx="17.6056" cy="17.6056" r="17.6056" transform="matrix(-1 0 0 1 77.4648 169.014)" fill="black"/>
<circle cx="17.6056" cy="17.6056" r="17.6056" transform="matrix(-1 0 0 1 35.2109 169.014)" fill="black"/>
<circle cx="17.6056" cy="17.6056" r="17.6056" transform="matrix(-1 0 0 1 500 211.268)" fill="black"/>
<circle cx="17.6056" cy="17.6056" r="17.6056" transform="matrix(-1 0 0 1 457.746 211.268)" fill="black"/>
<circle cx="17.6056" cy="17.6056" r="17.6056" transform="matrix(-1 0 0 1 415.492 211.268)" fill="black"/>
<circle cx="17.6056" cy="17.6056" r="17.6056" transform="matrix(-1 0 0 1 373.238 211.268)" fill="black"/>
<circle cx="17.6056" cy="17.6056" r="17.6056" transform="matrix(-1 0 0 1 330.984 211.268)" fill="black"/>
<circle cx="17.6056" cy="17.6056" r="17.6056" transform="matrix(-1 0 0 1 288.73 211.268)" fill="black"/>
<circle cx="17.6056" cy="17.6056" r="17.6056" transform="matrix(-1 0 0 1 246.48 211.268)" fill="black"/>
<circle cx="17.6056" cy="17.6056" r="17.6056" transform="matrix(-1 0 0 1 204.227 211.268)" fill="black"/>
<circle cx="17.6056" cy="17.6056" r="17.6056" transform="matrix(-1 0 0 1 161.973 211.268)" fill="black"/>
<circle cx="17.6056" cy="17.6056" r="17.6056" transform="matrix(-1 0 0 1 119.719 211.268)" fill="black"/>
<circle cx="17.6056" cy="17.6056" r="17.6056" transform="matrix(-1 0 0 1 77.4648 211.268)" fill="black"/>
<circle cx="17.6056" cy="17.6056" r="17.6056" transform="matrix(-1 0 0 1 35.2109 211.268)" fill="black"/>
<circle cx="17.6056" cy="17.6056" r="17.6056" transform="matrix(-1 0 0 1 500 253.521)" fill="black"/>
<circle cx="17.6056" cy="17.6056" r="17.6056" transform="matrix(-1 0 0 1 457.746 253.521)" fill="black"/>
<circle cx="17.6056" cy="17.6056" r="17.6056" transform="matrix(-1 0 0 1 415.492 253.521)" fill="black"/>
<circle cx="17.6056" cy="17.6056" r="17.6056" transform="matrix(-1 0 0 1 373.238 253.521)" fill="black"/>
<circle cx="17.6056" cy="17.6056" r="17.6056" transform="matrix(-1 0 0 1 330.984 253.521)" fill="black"/>
<circle cx="17.6056" cy="17.6056" r="17.6056" transform="matrix(-1 0 0 1 288.73 253.521)" fill="black"/>
<circle cx="17.6056" cy="17.6056" r="17.6056" transform="matrix(-1 0 0 1 246.48 253.521)" fill="black"/>
<circle cx="17.6056" cy="17.6056" r="17.6056" transform="matrix(-1 0 0 1 204.227 253.521)" fill="black"/>
<circle cx="17.6056" cy="17.6056" r="17.6056" transform="matrix(-1 0 0 1 161.973 253.521)" fill="black"/>
<circle cx="17.6056" cy="17.6056" r="17.6056" transform="matrix(-1 0 0 1 119.719 253.521)" fill="black"/>
<circle cx="17.6056" cy="17.6056" r="17.6056" transform="matrix(-1 0 0 1 77.4648 253.521)" fill="black"/>
<circle cx="17.6056" cy="17.6056" r="17.6056" transform="matrix(-1 0 0 1 35.2109 253.521)" fill="black"/>
<circle cx="17.6056" cy="17.6056" r="17.6056" transform="matrix(-1 0 0 1 500 295.775)" fill="black"/>
<circle cx="17.6056" cy="17.6056" r="17.6056" transform="matrix(-1 0 0 1 457.746 295.775)" fill="black"/>
<circle cx="17.6056" cy="17.6056" r="17.6056" transform="matrix(-1 0 0 1 415.492 295.775)" fill="black"/>
<circle cx="17.6056" cy="17.6056" r="17.6056" transform="matrix(-1 0 0 1 373.238 295.775)" fill="black"/>
<circle cx="17.6056" cy="17.6056" r="17.6056" transform="matrix(-1 0 0 1 330.984 295.775)" fill="black"/>
<circle cx="17.6056" cy="17.6056" r="17.6056" transform="matrix(-1 0 0 1 288.73 295.775)" fill="black"/>
<circle cx="17.6056" cy="17.6056" r="17.6056" transform="matrix(-1 0 0 1 246.48 295.775)" fill="black"/>
<circle cx="17.6056" cy="17.6056" r="17.6056" transform="matrix(-1 0 0 1 204.227 295.775)" fill="black"/>
<circle cx="17.6056" cy="17.6056" r="17.6056" transform="matrix(-1 0 0 1 161.973 295.775)" fill="black"/>
<circle cx="17.6056" cy="17.6056" r="17.6056" transform="matrix(-1 0 0 1 119.719 295.775)" fill="black"/>
<circle cx="17.6056" cy="17.6056" r="17.6056" transform="matrix(-1 0 0 1 77.4648 295.775)" fill="black"/>
<circle cx="17.6056" cy="17.6056" r="17.6056" transform="matrix(-1 0 0 1 35.2109 295.775)" fill="black"/>
<circle cx="17.6056" cy="17.6056" r="17.6056" transform="matrix(-1 0 0 1 500 338.027)" fill="black"/>
<circle cx="17.6056" cy="17.6056" r="17.6056" transform="matrix(-1 0 0 1 457.746 338.027)" fill="black"/>
<circle cx="17.6056" cy="17.6056" r="17.6056" transform="matrix(-1 0 0 1 415.492 338.027)" fill="black"/>
<circle cx="17.6056" cy="17.6056" r="17.6056" transform="matrix(-1 0 0 1 373.238 338.027)" fill="black"/>
<circle cx="17.6056" cy="17.6056" r="17.6056" transform="matrix(-1 0 0 1 330.984 338.027)" fill="black"/>
<circle cx="17.6056" cy="17.6056" r="17.6056" transform="matrix(-1 0 0 1 288.73 338.027)" fill="black"/>
<circle cx="17.6056" cy="17.6056" r="17.6056" transform="matrix(-1 0 0 1 246.48 338.027)" fill="black"/>
<circle cx="17.6056" cy="17.6056" r="17.6056" transform="matrix(-1 0 0 1 204.227 338.027)" fill="black"/>
<circle cx="17.6056" cy="17.6056" r="17.6056" transform="matrix(-1 0 0 1 161.973 338.027)" fill="black"/>
<circle cx="17.6056" cy="17.6056" r="17.6056" transform="matrix(-1 0 0 1 119.719 338.027)" fill="black"/>
<circle cx="17.6056" cy="17.6056" r="17.6056" transform="matrix(-1 0 0 1 77.4648 338.027)" fill="black"/>
<circle cx="17.6056" cy="17.6056" r="17.6056" transform="matrix(-1 0 0 1 35.2109 338.027)" fill="black"/>
<circle cx="17.6056" cy="17.6056" r="17.6056" transform="matrix(-1 0 0 1 500 380.281)" fill="black"/>
<circle cx="17.6056" cy="17.6056" r="17.6056" transform="matrix(-1 0 0 1 457.746 380.281)" fill="black"/>
<circle cx="17.6056" cy="17.6056" r="17.6056" transform="matrix(-1 0 0 1 415.492 380.281)" fill="black"/>
<circle cx="17.6056" cy="17.6056" r="17.6056" transform="matrix(-1 0 0 1 373.238 380.281)" fill="black"/>
<circle cx="17.6056" cy="17.6056" r="17.6056" transform="matrix(-1 0 0 1 330.984 380.281)" fill="black"/>
<circle cx="17.6056" cy="17.6056" r="17.6056" transform="matrix(-1 0 0 1 288.73 380.281)" fill="black"/>
<circle cx="17.6056" cy="17.6056" r="17.6056" transform="matrix(-1 0 0 1 246.48 380.281)" fill="black"/>
<circle cx="17.6056" cy="17.6056" r="17.6056" transform="matrix(-1 0 0 1 204.227 380.281)" fill="black"/>
<circle cx="17.6056" cy="17.6056" r="17.6056" transform="matrix(-1 0 0 1 161.973 380.281)" fill="black"/>
<circle cx="17.6056" cy="17.6056" r="17.6056" transform="matrix(-1 0 0 1 119.719 380.281)" fill="black"/>
<circle cx="17.6056" cy="17.6056" r="17.6056" transform="matrix(-1 0 0 1 77.4648 380.281)" fill="black"/>
<circle cx="17.6056" cy="17.6056" r="17.6056" transform="matrix(-1 0 0 1 35.2109 380.281)" fill="black"/>
<circle cx="17.6056" cy="17.6056" r="17.6056" transform="matrix(-1 0 0 1 500 422.535)" fill="black"/>
<circle cx="17.6056" cy="17.6056" r="17.6056" transform="matrix(-1 0 0 1 457.746 422.535)" fill="black"/>
<circle cx="17.6056" cy="17.6056" r="17.6056" transform="matrix(-1 0 0 1 415.492 422.535)" fill="black"/>
<circle cx="17.6056" cy="17.6056" r="17.6056" transform="matrix(-1 0 0 1 373.238 422.535)" fill="black"/>
<circle cx="17.6056" cy="17.6056" r="17.6056" transform="matrix(-1 0 0 1 330.984 422.535)" fill="black"/>
<circle cx="17.6056" cy="17.6056" r="17.6056" transform="matrix(-1 0 0 1 288.73 422.535)" fill="black"/>
<circle cx="17.6056" cy="17.6056" r="17.6056" transform="matrix(-1 0 0 1 246.48 422.535)" fill="black"/>
<circle cx="17.6056" cy="17.6056" r="17.6056" transform="matrix(-1 0 0 1 204.227 422.535)" fill="black"/>
<circle cx="17.6056" cy="17.6056" r="17.6056" transform="matrix(-1 0 0 1 161.973 422.535)" fill="black"/>
<circle cx="17.6056" cy="17.6056" r="17.6056" transform="matrix(-1 0 0 1 119.719 422.535)" fill="black"/>
<circle cx="17.6056" cy="17.6056" r="17.6056" transform="matrix(-1 0 0 1 77.4648 422.535)" fill="black"/>
<circle cx="17.6056" cy="17.6056" r="17.6056" transform="matrix(-1 0 0 1 35.2109 422.535)" fill="black"/>
<circle cx="17.6056" cy="17.6056" r="17.6056" transform="matrix(-1 0 0 1 500 464.789)" fill="black"/>
<circle cx="17.6056" cy="17.6056" r="17.6056" transform="matrix(-1 0 0 1 457.746 464.789)" fill="black"/>
<circle cx="17.6056" cy="17.6056" r="17.6056" transform="matrix(-1 0 0 1 415.492 464.789)" fill="black"/>
<circle cx="17.6056" cy="17.6056" r="17.6056" transform="matrix(-1 0 0 1 373.238 464.789)" fill="black"/>
<circle cx="17.6056" cy="17.6056" r="17.6056" transform="matrix(-1 0 0 1 330.984 464.789)" fill="black"/>
<circle cx="17.6056" cy="17.6056" r="17.6056" transform="matrix(-1 0 0 1 288.73 464.789)" fill="black"/>
<circle cx="17.6056" cy="17.6056" r="17.6056" transform="matrix(-1 0 0 1 246.48 464.789)" fill="black"/>
<circle cx="17.6056" cy="17.6056" r="17.6056" transform="matrix(-1 0 0 1 204.227 464.789)" fill="black"/>
<circle cx="17.6056" cy="17.6056" r="17.6056" transform="matrix(-1 0 0 1 161.973 464.789)" fill="black"/>
<circle cx="17.6056" cy="17.6056" r="17.6056" transform="matrix(-1 0 0 1 119.719 464.789)" fill="black"/>
<circle cx="17.6056" cy="17.6056" r="17.6056" transform="matrix(-1 0 0 1 77.4648 464.789)" fill="black"/>
<circle cx="17.6056" cy="17.6056" r="17.6056" transform="matrix(-1 0 0 1 35.2109 464.789)" fill="black"/>
<circle cx="17.6056" cy="17.6056" r="17.6056" transform="matrix(-1 0 0 1 500 507.043)" fill="black"/>
<circle cx="17.6056" cy="17.6056" r="17.6056" transform="matrix(-1 0 0 1 457.746 507.043)" fill="black"/>
<circle cx="17.6056" cy="17.6056" r="17.6056" transform="matrix(-1 0 0 1 415.492 507.043)" fill="black"/>
<circle cx="17.6056" cy="17.6056" r="17.6056" transform="matrix(-1 0 0 1 373.238 507.043)" fill="black"/>
<circle cx="17.6056" cy="17.6056" r="17.6056" transform="matrix(-1 0 0 1 330.984 507.043)" fill="black"/>
<circle cx="17.6056" cy="17.6056" r="17.6056" transform="matrix(-1 0 0 1 288.73 507.043)" fill="black"/>
<circle cx="17.6056" cy="17.6056" r="17.6056" transform="matrix(-1 0 0 1 246.48 507.043)" fill="black"/>
<circle cx="17.6056" cy="17.6056" r="17.6056" transform="matrix(-1 0 0 1 204.227 507.043)" fill="black"/>
<circle cx="17.6056" cy="17.6056" r="17.6056" transform="matrix(-1 0 0 1 161.973 507.043)" fill="black"/>
<circle cx="17.6056" cy="17.6056" r="17.6056" transform="matrix(-1 0 0 1 119.719 507.043)" fill="black"/>
<circle cx="17.6056" cy="17.6056" r="17.6056" transform="matrix(-1 0 0 1 77.4648 507.043)" fill="black"/>
<circle cx="17.6056" cy="17.6056" r="17.6056" transform="matrix(-1 0 0 1 35.2109 507.043)" fill="black"/>
<circle cx="17.6056" cy="17.6056" r="17.6056" transform="matrix(-1 0 0 1 500 549.295)" fill="black"/>
<circle cx="17.6056" cy="17.6056" r="17.6056" transform="matrix(-1 0 0 1 457.746 549.295)" fill="black"/>
<circle cx="17.6056" cy="17.6056" r="17.6056" transform="matrix(-1 0 0 1 415.492 549.295)" fill="black"/>
<circle cx="17.6056" cy="17.6056" r="17.6056" transform="matrix(-1 0 0 1 373.238 549.295)" fill="black"/>
<circle cx="17.6056" cy="17.6056" r="17.6056" transform="matrix(-1 0 0 1 330.984 549.295)" fill="black"/>
<circle cx="17.6056" cy="17.6056" r="17.6056" transform="matrix(-1 0 0 1 288.73 549.295)" fill="black"/>
<circle cx="17.6056" cy="17.6056" r="17.6056" transform="matrix(-1 0 0 1 246.48 549.295)" fill="black"/>
<circle cx="17.6056" cy="17.6056" r="17.6056" transform="matrix(-1 0 0 1 204.227 549.295)" fill="black"/>
<circle cx="17.6056" cy="17.6056" r="17.6056" transform="matrix(-1 0 0 1 161.973 549.295)" fill="black"/>
<circle cx="17.6056" cy="17.6056" r="17.6056" transform="matrix(-1 0 0 1 119.719 549.295)" fill="black"/>
<circle cx="17.6056" cy="17.6056" r="17.6056" transform="matrix(-1 0 0 1 77.4648 549.295)" fill="black"/>
<circle cx="17.6056" cy="17.6056" r="17.6056" transform="matrix(-1 0 0 1 35.2109 549.295)" fill="black"/>
<circle cx="17.6056" cy="17.6056" r="17.6056" transform="matrix(-1 0 0 1 500 591.549)" fill="black"/>
<circle cx="17.6056" cy="17.6056" r="17.6056" transform="matrix(-1 0 0 1 457.746 591.549)" fill="black"/>
<circle cx="17.6056" cy="17.6056" r="17.6056" transform="matrix(-1 0 0 1 415.492 591.549)" fill="black"/>
<circle cx="17.6056" cy="17.6056" r="17.6056" transform="matrix(-1 0 0 1 373.238 591.549)" fill="black"/>
<circle cx="17.6056" cy="17.6056" r="17.6056" transform="matrix(-1 0 0 1 330.984 591.549)" fill="black"/>
<circle cx="17.6056" cy="17.6056" r="17.6056" transform="matrix(-1 0 0 1 288.73 591.549)" fill="black"/>
<circle cx="17.6056" cy="17.6056" r="17.6056" transform="matrix(-1 0 0 1 246.48 591.549)" fill="black"/>
<circle cx="17.6056" cy="17.6056" r="17.6056" transform="matrix(-1 0 0 1 204.227 591.549)" fill="black"/>
<circle cx="17.6056" cy="17.6056" r="17.6056" transform="matrix(-1 0 0 1 161.973 591.549)" fill="black"/>
<circle cx="17.6056" cy="17.6056" r="17.6056" transform="matrix(-1 0 0 1 119.719 591.549)" fill="black"/>
<circle cx="17.6056" cy="17.6056" r="17.6056" transform="matrix(-1 0 0 1 77.4648 591.549)" fill="black"/>
<circle cx="17.6056" cy="17.6056" r="17.6056" transform="matrix(-1 0 0 1 35.2109 591.549)" fill="black"/>
<circle cx="17.6056" cy="17.6056" r="17.6056" transform="matrix(-1 0 0 1 500 633.803)" fill="black"/>
<circle cx="17.6056" cy="17.6056" r="17.6056" transform="matrix(-1 0 0 1 457.746 633.803)" fill="black"/>
<circle cx="17.6056" cy="17.6056" r="17.6056" transform="matrix(-1 0 0 1 415.492 633.803)" fill="black"/>
<circle cx="17.6056" cy="17.6056" r="17.6056" transform="matrix(-1 0 0 1 373.238 633.803)" fill="black"/>
<circle cx="17.6056" cy="17.6056" r="17.6056" transform="matrix(-1 0 0 1 330.984 633.803)" fill="black"/>
<circle cx="17.6056" cy="17.6056" r="17.6056" transform="matrix(-1 0 0 1 288.73 633.803)" fill="black"/>
<circle cx="17.6056" cy="17.6056" r="17.6056" transform="matrix(-1 0 0 1 246.48 633.803)" fill="black"/>
<circle cx="17.6056" cy="17.6056" r="17.6056" transform="matrix(-1 0 0 1 204.227 633.803)" fill="black"/>
<circle cx="17.6056" cy="17.6056" r="17.6056" transform="matrix(-1 0 0 1 161.973 633.803)" fill="black"/>
<circle cx="17.6056" cy="17.6056" r="17.6056" transform="matrix(-1 0 0 1 119.719 633.803)" fill="black"/>
<circle cx="17.6056" cy="17.6056" r="17.6056" transform="matrix(-1 0 0 1 77.4648 633.803)" fill="black"/>
<circle cx="17.6056" cy="17.6056" r="17.6056" transform="matrix(-1 0 0 1 35.2109 633.803)" fill="black"/>
<circle cx="17.6056" cy="17.6056" r="17.6056" transform="matrix(-1 0 0 1 500 676.057)" fill="black"/>
<circle cx="17.6056" cy="17.6056" r="17.6056" transform="matrix(-1 0 0 1 457.746 676.057)" fill="black"/>
<circle cx="17.6056" cy="17.6056" r="17.6056" transform="matrix(-1 0 0 1 415.492 676.057)" fill="black"/>
<circle cx="17.6056" cy="17.6056" r="17.6056" transform="matrix(-1 0 0 1 373.238 676.057)" fill="black"/>
<circle cx="17.6056" cy="17.6056" r="17.6056" transform="matrix(-1 0 0 1 330.984 676.057)" fill="black"/>
<circle cx="17.6056" cy="17.6056" r="17.6056" transform="matrix(-1 0 0 1 288.73 676.057)" fill="black"/>
<circle cx="17.6056" cy="17.6056" r="17.6056" transform="matrix(-1 0 0 1 246.48 676.057)" fill="black"/>
<circle cx="17.6056" cy="17.6056" r="17.6056" transform="matrix(-1 0 0 1 204.227 676.057)" fill="black"/>
<circle cx="17.6056" cy="17.6056" r="17.6056" transform="matrix(-1 0 0 1 161.973 676.057)" fill="black"/>
<circle cx="17.6056" cy="17.6056" r="17.6056" transform="matrix(-1 0 0 1 119.719 676.057)" fill="black"/>
<circle cx="17.6056" cy="17.6056" r="17.6056" transform="matrix(-1 0 0 1 77.4648 676.057)" fill="black"/>
<circle cx="17.6056" cy="17.6056" r="17.6056" transform="matrix(-1 0 0 1 35.2109 676.057)" fill="black"/>
<circle cx="17.6056" cy="17.6056" r="17.6056" transform="matrix(-1 0 0 1 500 718.311)" fill="black"/>
<circle cx="17.6056" cy="17.6056" r="17.6056" transform="matrix(-1 0 0 1 457.746 718.311)" fill="black"/>
<circle cx="17.6056" cy="17.6056" r="17.6056" transform="matrix(-1 0 0 1 415.492 718.311)" fill="black"/>
<circle cx="17.6056" cy="17.6056" r="17.6056" transform="matrix(-1 0 0 1 373.238 718.311)" fill="black"/>
<circle cx="17.6056" cy="17.6056" r="17.6056" transform="matrix(-1 0 0 1 330.984 718.311)" fill="black"/>
<circle cx="17.6056" cy="17.6056" r="17.6056" transform="matrix(-1 0 0 1 288.73 718.311)" fill="black"/>
<circle cx="17.6056" cy="17.6056" r="17.6056" transform="matrix(-1 0 0 1 246.48 718.311)" fill="black"/>
<circle cx="17.6056" cy="17.6056" r="17.6056" transform="matrix(-1 0 0 1 204.227 718.311)" fill="black"/>
<circle cx="17.6056" cy="17.6056" r="17.6056" transform="matrix(-1 0 0 1 161.973 718.311)" fill="black"/>
<circle cx="17.6056" cy="17.6056" r="17.6056" transform="matrix(-1 0 0 1 119.719 718.311)" fill="black"/>
<circle cx="17.6056" cy="17.6056" r="17.6056" transform="matrix(-1 0 0 1 77.4648 718.311)" fill="black"/>
<circle cx="17.6056" cy="17.6056" r="17.6056" transform="matrix(-1 0 0 1 35.2109 718.311)" fill="black"/>
<circle cx="17.6056" cy="17.6056" r="17.6056" transform="matrix(-1 0 0 1 500 760.562)" fill="black"/>
<circle cx="17.6056" cy="17.6056" r="17.6056" transform="matrix(-1 0 0 1 457.746 760.562)" fill="black"/>
<circle cx="17.6056" cy="17.6056" r="17.6056" transform="matrix(-1 0 0 1 415.492 760.562)" fill="black"/>
<circle cx="17.6056" cy="17.6056" r="17.6056" transform="matrix(-1 0 0 1 373.238 760.562)" fill="black"/>
<circle cx="17.6056" cy="17.6056" r="17.6056" transform="matrix(-1 0 0 1 330.984 760.562)" fill="black"/>
<circle cx="17.6056" cy="17.6056" r="17.6056" transform="matrix(-1 0 0 1 288.73 760.562)" fill="black"/>
<circle cx="17.6056" cy="17.6056" r="17.6056" transform="matrix(-1 0 0 1 246.48 760.562)" fill="black"/>
<circle cx="17.6056" cy="17.6056" r="17.6056" transform="matrix(-1 0 0 1 204.227 760.562)" fill="black"/>
<circle cx="17.6056" cy="17.6056" r="17.6056" transform="matrix(-1 0 0 1 161.973 760.562)" fill="black"/>
<circle cx="17.6056" cy="17.6056" r="17.6056" transform="matrix(-1 0 0 1 119.719 760.562)" fill="black"/>
<circle cx="17.6056" cy="17.6056" r="17.6056" transform="matrix(-1 0 0 1 77.4648 760.562)" fill="black"/>
<circle cx="17.6056" cy="17.6056" r="17.6056" transform="matrix(-1 0 0 1 35.2109 760.562)" fill="black"/>
<circle cx="17.6056" cy="17.6056" r="17.6056" transform="matrix(-1 0 0 1 500 802.816)" fill="black"/>
<circle cx="17.6056" cy="17.6056" r="17.6056" transform="matrix(-1 0 0 1 457.746 802.816)" fill="black"/>
<circle cx="17.6056" cy="17.6056" r="17.6056" transform="matrix(-1 0 0 1 415.492 802.816)" fill="black"/>
<circle cx="17.6056" cy="17.6056" r="17.6056" transform="matrix(-1 0 0 1 373.238 802.816)" fill="black"/>
<circle cx="17.6056" cy="17.6056" r="17.6056" transform="matrix(-1 0 0 1 330.984 802.816)" fill="black"/>
<circle cx="17.6056" cy="17.6056" r="17.6056" transform="matrix(-1 0 0 1 288.73 802.816)" fill="black"/>
<circle cx="17.6056" cy="17.6056" r="17.6056" transform="matrix(-1 0 0 1 246.48 802.816)" fill="black"/>
<circle cx="17.6056" cy="17.6056" r="17.6056" transform="matrix(-1 0 0 1 204.227 802.816)" fill="black"/>
<circle cx="17.6056" cy="17.6056" r="17.6056" transform="matrix(-1 0 0 1 161.973 802.816)" fill="black"/>
<circle cx="17.6056" cy="17.6056" r="17.6056" transform="matrix(-1 0 0 1 119.719 802.816)" fill="black"/>
<circle cx="17.6056" cy="17.6056" r="17.6056" transform="matrix(-1 0 0 1 77.4648 802.816)" fill="black"/>
<circle cx="17.6056" cy="17.6056" r="17.6056" transform="matrix(-1 0 0 1 35.2109 802.816)" fill="black"/>
<circle cx="17.6056" cy="17.6056" r="17.6056" transform="matrix(-1 0 0 1 500 845.07)" fill="black"/>
<circle cx="17.6056" cy="17.6056" r="17.6056" transform="matrix(-1 0 0 1 457.746 845.07)" fill="black"/>
<circle cx="17.6056" cy="17.6056" r="17.6056" transform="matrix(-1 0 0 1 415.492 845.07)" fill="black"/>
<circle cx="17.6056" cy="17.6056" r="17.6056" transform="matrix(-1 0 0 1 373.238 845.07)" fill="black"/>
<circle cx="17.6056" cy="17.6056" r="17.6056" transform="matrix(-1 0 0 1 330.984 845.07)" fill="black"/>
<circle cx="17.6056" cy="17.6056" r="17.6056" transform="matrix(-1 0 0 1 288.73 845.07)" fill="black"/>
<circle cx="17.6056" cy="17.6056" r="17.6056" transform="matrix(-1 0 0 1 246.48 845.07)" fill="black"/>
<circle cx="17.6056" cy="17.6056" r="17.6056" transform="matrix(-1 0 0 1 204.227 845.07)" fill="black"/>
<circle cx="17.6056" cy="17.6056" r="17.6056" transform="matrix(-1 0 0 1 161.973 845.07)" fill="black"/>
<circle cx="17.6056" cy="17.6056" r="17.6056" transform="matrix(-1 0 0 1 119.719 845.07)" fill="black"/>
<circle cx="17.6056" cy="17.6056" r="17.6056" transform="matrix(-1 0 0 1 77.4648 845.07)" fill="black"/>
<circle cx="17.6056" cy="17.6056" r="17.6056" transform="matrix(-1 0 0 1 35.2109 845.07)" fill="black"/>
<circle cx="17.6056" cy="17.6056" r="17.6056" transform="matrix(-1 0 0 1 500 887.324)" fill="black"/>
<circle cx="17.6056" cy="17.6056" r="17.6056" transform="matrix(-1 0 0 1 457.746 887.324)" fill="black"/>
<circle cx="17.6056" cy="17.6056" r="17.6056" transform="matrix(-1 0 0 1 415.492 887.324)" fill="black"/>
<circle cx="17.6056" cy="17.6056" r="17.6056" transform="matrix(-1 0 0 1 373.238 887.324)" fill="black"/>
<circle cx="17.6056" cy="17.6056" r="17.6056" transform="matrix(-1 0 0 1 330.984 887.324)" fill="black"/>
<circle cx="17.6056" cy="17.6056" r="17.6056" transform="matrix(-1 0 0 1 288.73 887.324)" fill="black"/>
<circle cx="17.6056" cy="17.6056" r="17.6056" transform="matrix(-1 0 0 1 246.48 887.324)" fill="black"/>
<circle cx="17.6056" cy="17.6056" r="17.6056" transform="matrix(-1 0 0 1 204.227 887.324)" fill="black"/>
<circle cx="17.6056" cy="17.6056" r="17.6056" transform="matrix(-1 0 0 1 161.973 887.324)" fill="black"/>
<circle cx="17.6056" cy="17.6056" r="17.6056" transform="matrix(-1 0 0 1 119.719 887.324)" fill="black"/>
<circle cx="17.6056" cy="17.6056" r="17.6056" transform="matrix(-1 0 0 1 77.4648 887.324)" fill="black"/>
<circle cx="17.6056" cy="17.6056" r="17.6056" transform="matrix(-1 0 0 1 35.2109 887.324)" fill="black"/>
<circle cx="17.6056" cy="17.6056" r="17.6056" transform="matrix(-1 0 0 1 500 929.578)" fill="black"/>
<circle cx="17.6056" cy="17.6056" r="17.6056" transform="matrix(-1 0 0 1 457.746 929.578)" fill="black"/>
<circle cx="17.6056" cy="17.6056" r="17.6056" transform="matrix(-1 0 0 1 415.492 929.578)" fill="black"/>
<circle cx="17.6056" cy="17.6056" r="17.6056" transform="matrix(-1 0 0 1 373.238 929.578)" fill="black"/>
<circle cx="17.6056" cy="17.6056" r="17.6056" transform="matrix(-1 0 0 1 330.984 929.578)" fill="black"/>
<circle cx="17.6056" cy="17.6056" r="17.6056" transform="matrix(-1 0 0 1 288.73 929.578)" fill="black"/>
<circle cx="17.6056" cy="17.6056" r="17.6056" transform="matrix(-1 0 0 1 246.48 929.578)" fill="black"/>
<circle cx="17.6056" cy="17.6056" r="17.6056" transform="matrix(-1 0 0 1 204.227 929.578)" fill="black"/>
<circle cx="17.6056" cy="17.6056" r="17.6056" transform="matrix(-1 0 0 1 161.973 929.578)" fill="black"/>
<circle cx="17.6056" cy="17.6056" r="17.6056" transform="matrix(-1 0 0 1 119.719 929.578)" fill="black"/>
<circle cx="17.6056" cy="17.6056" r="17.6056" transform="matrix(-1 0 0 1 77.4648 929.578)" fill="black"/>
<circle cx="17.6056" cy="17.6056" r="17.6056" transform="matrix(-1 0 0 1 35.2109 929.578)" fill="black"/>
<circle cx="17.6056" cy="17.6056" r="17.6056" transform="matrix(-1 0 0 1 500 971.83)" fill="black"/>
<circle cx="17.6056" cy="17.6056" r="17.6056" transform="matrix(-1 0 0 1 457.746 971.83)" fill="black"/>
<circle cx="17.6056" cy="17.6056" r="17.6056" transform="matrix(-1 0 0 1 415.492 971.83)" fill="black"/>
<circle cx="17.6056" cy="17.6056" r="17.6056" transform="matrix(-1 0 0 1 373.238 971.83)" fill="black"/>
<circle cx="17.6056" cy="17.6056" r="17.6056" transform="matrix(-1 0 0 1 330.984 971.83)" fill="black"/>
<circle cx="17.6056" cy="17.6056" r="17.6056" transform="matrix(-1 0 0 1 288.73 971.83)" fill="black"/>
<circle cx="17.6056" cy="17.6056" r="17.6056" transform="matrix(-1 0 0 1 246.48 971.83)" fill="black"/>
<circle cx="17.6056" cy="17.6056" r="17.6056" transform="matrix(-1 0 0 1 204.227 971.83)" fill="black"/>
<circle cx="17.6056" cy="17.6056" r="17.6056" transform="matrix(-1 0 0 1 161.973 971.83)" fill="black"/>
<circle cx="17.6056" cy="17.6056" r="17.6056" transform="matrix(-1 0 0 1 119.719 971.83)" fill="black"/>
<circle cx="17.6056" cy="17.6056" r="17.6056" transform="matrix(-1 0 0 1 77.4648 971.83)" fill="black"/>
<circle cx="17.6056" cy="17.6056" r="17.6056" transform="matrix(-1 0 0 1 35.2109 971.83)" fill="black"/>
<circle cx="17.6056" cy="17.6056" r="17.6056" transform="matrix(-1 0 0 1 500 1014.08)" fill="black"/>
<circle cx="17.6056" cy="17.6056" r="17.6056" transform="matrix(-1 0 0 1 457.746 1014.08)" fill="black"/>
<circle cx="17.6056" cy="17.6056" r="17.6056" transform="matrix(-1 0 0 1 415.492 1014.08)" fill="black"/>
<circle cx="17.6056" cy="17.6056" r="17.6056" transform="matrix(-1 0 0 1 373.238 1014.08)" fill="black"/>
<circle cx="17.6056" cy="17.6056" r="17.6056" transform="matrix(-1 0 0 1 330.984 1014.08)" fill="black"/>
<circle cx="17.6056" cy="17.6056" r="17.6056" transform="matrix(-1 0 0 1 288.73 1014.08)" fill="black"/>
<circle cx="17.6056" cy="17.6056" r="17.6056" transform="matrix(-1 0 0 1 246.48 1014.08)" fill="black"/>
<circle cx="17.6056" cy="17.6056" r="17.6056" transform="matrix(-1 0 0 1 204.227 1014.08)" fill="black"/>
<circle cx="17.6056" cy="17.6056" r="17.6056" transform="matrix(-1 0 0 1 161.973 1014.08)" fill="black"/>
<circle cx="17.6056" cy="17.6056" r="17.6056" transform="matrix(-1 0 0 1 119.719 1014.08)" fill="black"/>
<circle cx="17.6056" cy="17.6056" r="17.6056" transform="matrix(-1 0 0 1 77.4648 1014.08)" fill="black"/>
<circle cx="17.6056" cy="17.6056" r="17.6056" transform="matrix(-1 0 0 1 35.2109 1014.08)" fill="black"/>
<circle cx="17.6056" cy="17.6056" r="17.6056" transform="matrix(-1 0 0 1 500 1056.34)" fill="black"/>
<circle cx="17.6056" cy="17.6056" r="17.6056" transform="matrix(-1 0 0 1 457.746 1056.34)" fill="black"/>
<circle cx="17.6056" cy="17.6056" r="17.6056" transform="matrix(-1 0 0 1 415.492 1056.34)" fill="black"/>
<circle cx="17.6056" cy="17.6056" r="17.6056" transform="matrix(-1 0 0 1 373.238 1056.34)" fill="black"/>
<circle cx="17.6056" cy="17.6056" r="17.6056" transform="matrix(-1 0 0 1 330.984 1056.34)" fill="black"/>
<circle cx="17.6056" cy="17.6056" r="17.6056" transform="matrix(-1 0 0 1 288.73 1056.34)" fill="black"/>
<circle cx="17.6056" cy="17.6056" r="17.6056" transform="matrix(-1 0 0 1 246.48 1056.34)" fill="black"/>
<circle cx="17.6056" cy="17.6056" r="17.6056" transform="matrix(-1 0 0 1 204.227 1056.34)" fill="black"/>
<circle cx="17.6056" cy="17.6056" r="17.6056" transform="matrix(-1 0 0 1 161.973 1056.34)" fill="black"/>
<circle cx="17.6056" cy="17.6056" r="17.6056" transform="matrix(-1 0 0 1 119.719 1056.34)" fill="black"/>
<circle cx="17.6056" cy="17.6056" r="17.6056" transform="matrix(-1 0 0 1 77.4648 1056.34)" fill="black"/>
<circle cx="17.6056" cy="17.6056" r="17.6056" transform="matrix(-1 0 0 1 35.2109 1056.34)" fill="black"/>
<circle cx="17.6056" cy="17.6056" r="17.6056" transform="matrix(-1 0 0 1 500 1098.59)" fill="black"/>
<circle cx="17.6056" cy="17.6056" r="17.6056" transform="matrix(-1 0 0 1 457.746 1098.59)" fill="black"/>
<circle cx="17.6056" cy="17.6056" r="17.6056" transform="matrix(-1 0 0 1 415.492 1098.59)" fill="black"/>
<circle cx="17.6056" cy="17.6056" r="17.6056" transform="matrix(-1 0 0 1 373.238 1098.59)" fill="black"/>
<circle cx="17.6056" cy="17.6056" r="17.6056" transform="matrix(-1 0 0 1 330.984 1098.59)" fill="black"/>
<circle cx="17.6056" cy="17.6056" r="17.6056" transform="matrix(-1 0 0 1 288.73 1098.59)" fill="black"/>
<circle cx="17.6056" cy="17.6056" r="17.6056" transform="matrix(-1 0 0 1 246.48 1098.59)" fill="black"/>
<circle cx="17.6056" cy="17.6056" r="17.6056" transform="matrix(-1 0 0 1 204.227 1098.59)" fill="black"/>
<circle cx="17.6056" cy="17.6056" r="17.6056" transform="matrix(-1 0 0 1 161.973 1098.59)" fill="black"/>
<circle cx="17.6056" cy="17.6056" r="17.6056" transform="matrix(-1 0 0 1 119.719 1098.59)" fill="black"/>
<circle cx="17.6056" cy="17.6056" r="17.6056" transform="matrix(-1 0 0 1 77.4648 1098.59)" fill="black"/>
<circle cx="17.6056" cy="17.6056" r="17.6056" transform="matrix(-1 0 0 1 35.2109 1098.59)" fill="black"/>
</mask>
<g mask="url(#mask0_2340_6910)">
<rect width="500" height="1133.8" transform="matrix(-1 0 0 1 500 0)" fill="url(#paint0_linear_2340_6910)"/>
</g>
<defs>
<linearGradient id="paint0_linear_2340_6910" x1="500" y1="-1.6895e-05" x2="-4.16391e-05" y2="1133.8" gradientUnits="userSpaceOnUse">
<stop stop-color="#D9D9D9" stop-opacity="0.69"/>
<stop offset="0.302885" stop-color="#A3A3A3" stop-opacity="0.21"/>
<stop offset="1" stop-color="#737373" stop-opacity="0"/>
</linearGradient>
</defs>
</svg>
