<svg width="1524" height="139" viewBox="0 0 1524 139" fill="none" xmlns="http://www.w3.org/2000/svg">
<path d="M69.1758 3.2998C74.5713 3.2998 80.0688 4.25045 85.668 6.15039C91.3689 8.05036 96.6633 11.1997 101.55 15.5996C106.538 19.9996 110.509 25.9502 113.461 33.4502C116.515 40.8501 118.042 50.05 118.042 61.0498C118.042 72.3497 116.515 82.0998 113.461 90.2998C110.407 98.3997 106.386 105.05 101.397 110.25C96.5109 115.35 91.1661 119.15 85.3633 121.65C79.6622 124.05 74.266 125.25 69.1758 125.25H55.127V139H37C28.7877 139 21.0383 137.019 14.2021 133.511V6.2998H0V3.2998H69.1758ZM229.641 3.2998C238.803 3.29986 247.202 5.00045 254.837 8.40039C262.472 11.7004 268.529 16.9505 273.009 24.1504C277.59 31.2503 279.881 40.55 279.881 52.0498C279.881 61.5498 278.252 69.5004 274.994 75.9004C271.838 82.3002 267.715 87.5001 262.625 91.5C257.637 95.5 252.24 98.5998 246.438 100.8C240.737 102.9 235.341 104.3 230.251 105C244.096 105.7 254.379 108.15 261.098 112.35C267.817 116.45 272.245 122.65 274.383 130.95C275.055 133.413 275.626 136.096 276.097 139H236.946C236.962 138.157 236.97 137.324 236.97 136.5C236.97 130.2 236.512 124.85 235.596 120.45C234.679 115.95 233.05 112.55 230.709 110.25C228.367 107.85 224.855 106.65 220.172 106.65H214.217V139H173.291V6.2998H159.09V3.2998H229.641ZM382.47 0C393.057 0 402.525 4.25009 410.873 12.75C419.323 21.15 425.991 33.4504 430.878 49.6504C435.866 65.7502 438.36 85.4 438.36 108.6C438.36 119.514 437.803 129.648 436.689 139H393.872C394.007 129.615 394.075 119.481 394.075 108.6C394.075 92.1998 393.923 77.4999 393.617 64.5C393.414 51.4001 392.905 40.3002 392.091 31.2002C391.276 22.0003 390.105 15.0002 388.578 10.2002C387.153 5.40019 385.117 3 382.47 3C379.823 3.00012 377.736 5.40031 376.209 10.2002C374.784 15.0002 373.664 22.0003 372.85 31.2002C372.137 40.3002 371.678 51.4001 371.475 64.5C371.271 77.4999 371.17 92.1998 371.17 108.6C371.17 119.481 371.216 129.615 371.306 139H328.521C327.431 129.648 326.885 119.514 326.885 108.6C326.885 85.3999 329.328 65.7502 334.215 49.6504C339.203 33.4505 345.871 21.15 354.219 12.75C362.668 4.25005 372.086 5.58914e-05 382.47 0ZM582.062 6.2998H566.639V139H525.408V6.2998H509.222V3.2998H582.062V6.2998ZM719.912 55.6504H716.857C716.857 47.5504 715.33 39.6996 712.276 32.0996C709.222 24.4998 705.15 18.2999 700.06 13.5C694.969 8.7001 689.319 6.2998 683.109 6.2998H677.612V106.65H704.488V88.6504H707.543V127.35H704.488V109.65H677.612V139H636.229V6.2998H621.722V3.2998H719.912V55.6504ZM821.867 0C829.604 7.1858e-05 836.171 2.19967 841.566 6.59961C847.064 10.8996 851.237 16.2999 854.088 22.7998C857.04 29.2998 858.517 35.7 858.517 42C858.517 48.1 857.243 53.1998 854.698 57.2998C852.255 61.3998 848.285 63.4502 842.787 63.4502C836.883 63.4501 832.658 61.6 830.113 57.9004C827.67 54.2004 826.448 49.3496 826.448 43.3496C826.448 38.6498 827.466 34.6495 829.502 31.3496C831.538 27.9497 833.524 24.9001 835.458 22.2002C837.392 19.5003 838.359 16.6502 838.359 13.6504C838.359 10.8506 837.239 8.60035 835 6.90039C832.862 5.2004 830.876 4.34961 829.044 4.34961C825.786 4.34964 823.038 6.84986 820.798 11.8496C818.558 16.8496 816.726 23.4 815.301 31.5C813.977 39.4999 812.959 48.1998 812.246 57.5996C811.635 66.9995 811.228 76.1499 811.024 85.0498C810.821 93.9497 810.719 101.7 810.719 108.3C810.719 115.2 810.821 123.15 811.024 132.15C811.076 134.421 811.14 136.704 811.218 139H767.456C766.47 129.658 765.977 119.525 765.977 108.6C765.977 95.0999 767.045 81.9501 769.183 69.1504C771.422 56.2505 774.782 44.6002 779.262 34.2002C783.741 23.8002 789.493 15.4998 796.518 9.2998C803.644 3.09986 812.094 0 821.867 0ZM1009.58 55.6504H1006.52C1006.52 47.5504 1005.4 39.75 1003.16 32.25C1000.92 24.6502 997.717 18.4503 993.543 13.6504C989.369 8.75037 984.278 6.2998 978.271 6.2998H976.287V139H935.209V6.2998H933.071C927.167 6.2998 922.076 8.75037 917.8 13.6504C913.626 18.4503 910.419 24.6502 908.18 32.25C905.94 39.75 904.82 47.5504 904.82 55.6504H901.766V3.2998H1009.58V55.6504ZM1200.06 6.2998H1188.3V107.4L1239.46 6.2998H1226.48V3.2998H1256.87V6.2998H1243.28L1214.87 63.499L1233.8 139H1193.99L1188.3 114.344V139H1147.53V6.2998H1133.48V3.2998H1200.06V6.2998ZM1372.79 6.2998H1357.67V139H1316.75V6.2998H1301.78V3.2998H1372.79V6.2998ZM1523.35 55.6504H1520.3C1520.3 47.5504 1519.18 39.75 1516.94 32.25C1514.7 24.65 1511.49 18.4504 1507.32 13.6504C1503.14 8.75037 1498.05 6.2998 1492.04 6.2998H1490.06V138.906C1489.05 138.967 1488.03 139 1487 139H1448.98V6.2998H1446.84C1440.94 6.29985 1435.85 8.75041 1431.57 13.6504C1427.4 18.4503 1424.19 24.6502 1421.95 32.25C1419.71 39.75 1418.59 47.5504 1418.59 55.6504H1415.54V3.2998H1523.35V55.6504ZM55.127 122.25H58.9443C61.7948 122.25 64.391 119.9 66.7324 115.2C69.1757 110.5 71.1614 103.6 72.6885 94.5C74.2155 85.3001 74.9785 74.1002 74.9785 60.9004C74.9785 48.3004 74.3176 38 72.9941 30C71.7725 21.9002 70.0414 15.9504 67.8018 12.1504C65.5621 8.25037 62.966 6.2998 60.0137 6.2998H55.127V122.25ZM214.217 103.65H220.478C224.244 103.65 227.299 101.65 229.641 97.6504C231.982 93.6504 233.712 87.85 234.832 80.25C235.952 72.6501 236.512 63.4502 236.512 52.6504C236.512 42.5506 235.952 34.0503 234.832 27.1504C233.712 20.2504 231.982 15.0498 229.641 11.5498C227.299 8.04979 224.244 6.2998 220.478 6.2998H214.217V103.65Z" fill="black"/>
</svg>
