<svg width="176" height="175" viewBox="0 0 176 175" fill="none" xmlns="http://www.w3.org/2000/svg">
<path d="M87.6445 29.5756V28.9745H88.8221V11.2006H87.6445V10.5995H90.6741V12.0592C90.7231 11.8957 90.8174 11.6912 90.9565 11.4459C91.0955 11.2006 91.2874 10.9839 91.5327 10.7958C91.7862 10.6077 92.097 10.5137 92.4649 10.5137C92.9474 10.5137 93.3934 10.7345 93.8022 11.1761C94.2111 11.6095 94.542 12.3086 94.7955 13.2736C95.0491 14.2386 95.1761 15.5102 95.1761 17.0884C95.1761 18.7076 95.0409 19.9997 94.771 20.9646C94.5093 21.9296 94.1577 22.6247 93.7161 23.0499C93.2745 23.4751 92.7964 23.6877 92.2812 23.6877C91.9378 23.6877 91.6515 23.5978 91.4226 23.4179C91.2018 23.238 91.03 23.0335 90.9074 22.8046C90.7929 22.5674 90.7231 22.3671 90.6986 22.2035V28.9745H91.8887V29.5756H87.6445ZM91.9868 22.8904C92.2158 22.8904 92.4121 22.7555 92.5756 22.4856C92.7392 22.2076 92.8738 21.8151 92.9801 21.3081C93.0946 20.8011 93.1764 20.1959 93.2254 19.4926C93.2745 18.7812 93.2991 17.9921 93.2991 17.1252C93.2991 16.3075 93.2745 15.5511 93.2254 14.856C93.1764 14.1609 93.099 13.5557 92.9927 13.0405C92.8864 12.5254 92.7512 12.1287 92.5876 11.8507C92.4322 11.5645 92.2485 11.4214 92.0359 11.4214C91.766 11.4214 91.5371 11.5563 91.349 11.8262C91.1691 12.096 91.0257 12.4272 90.9194 12.8197C90.8131 13.2041 90.7395 13.5803 90.6986 13.9483V19.8852C90.7149 20.3595 90.7722 20.8297 90.8703 21.2958C90.9684 21.7537 91.1075 22.134 91.2874 22.4366C91.4755 22.7391 91.7088 22.8904 91.9868 22.8904Z" fill="#DCDCDC"/>
<path d="M94.6328 23.833L94.6982 23.2355L95.8807 23.365L97.1482 11.7934L95.9658 11.6639L96.0312 11.0664L98.9571 11.3869L98.8726 12.7227C98.9086 12.6197 99.0084 12.4619 99.1714 12.2495C99.3344 12.037 99.553 11.847 99.8261 11.6795C100.099 11.512 100.411 11.4474 100.761 11.4857C101.167 11.5302 101.485 11.7089 101.713 12.0219C101.942 12.335 102.096 12.7384 102.174 13.2322C102.251 13.7261 102.258 14.2656 102.193 14.8509C102.15 15.2493 102.047 15.5506 101.885 15.7549C101.723 15.9511 101.513 16.035 101.252 16.0065C101.009 15.9798 100.828 15.8654 100.71 15.6633C100.601 15.454 100.565 15.1868 100.6 14.8616C100.623 14.6584 100.674 14.4871 100.756 14.348C100.844 14.2096 100.93 14.0709 101.011 13.9317C101.093 13.7844 101.146 13.601 101.17 13.3815C101.214 12.9831 101.172 12.6865 101.045 12.4917C100.927 12.2896 100.751 12.1756 100.515 12.1498C100.214 12.1169 99.9302 12.2297 99.6637 12.4884C99.4058 12.7399 99.1877 13.078 99.0094 13.5027C98.8323 13.9193 98.7189 14.3552 98.6687 14.8104L97.7098 23.5653L98.9293 23.6988L98.8639 24.2964L94.6328 23.833Z" fill="#DCDCDC"/>
<path d="M105.064 26.0432C104.625 25.9458 104.238 25.7092 103.902 25.3333C103.575 24.9591 103.317 24.4581 103.13 23.8302C102.942 23.2023 102.851 22.4618 102.856 21.6085C102.861 20.7552 102.981 19.7976 103.217 18.7358C103.473 17.5782 103.782 16.6165 104.145 15.8508C104.515 15.087 104.911 14.4921 105.332 14.0661C105.761 13.6419 106.196 13.3614 106.637 13.2246C107.08 13.0798 107.508 13.0534 107.924 13.1454C108.331 13.2357 108.704 13.44 109.044 13.7582C109.386 14.0685 109.661 14.5065 109.871 15.0723C110.08 15.6381 110.191 16.3454 110.205 17.1943C110.217 18.0431 110.096 19.0463 109.839 20.204C109.603 21.2658 109.303 22.1836 108.939 22.9572C108.576 23.7308 108.175 24.3626 107.74 24.8524C107.305 25.3422 106.856 25.6866 106.393 25.8855C105.938 26.0862 105.495 26.1387 105.064 26.0432ZM105.199 25.4324C105.639 25.5298 106.099 25.1127 106.582 24.1811C107.065 23.2495 107.528 21.7857 107.97 19.7898C108.408 17.8178 108.596 16.3436 108.536 15.367C108.479 14.3825 108.23 13.8416 107.791 13.7442C107.344 13.6451 106.886 14.0294 106.417 14.8971C105.95 15.7568 105.498 17.1727 105.06 19.1447C104.618 21.1406 104.419 22.6628 104.463 23.7111C104.507 24.7595 104.752 25.3333 105.199 25.4324Z" fill="#DCDCDC"/>
<path d="M106.726 32.8126C106.324 32.6759 106.016 32.4375 105.803 32.0976C105.591 31.7577 105.472 31.3549 105.449 30.8893C105.426 30.4237 105.502 29.9315 105.678 29.4127C105.804 29.041 105.976 28.7794 106.191 28.6281C106.396 28.4818 106.619 28.4493 106.859 28.5308C107.099 28.6124 107.245 28.7657 107.298 28.991C107.352 29.2163 107.329 29.4721 107.232 29.7587C107.163 29.96 107.076 30.1289 106.969 30.2654C106.867 30.4122 106.761 30.5487 106.649 30.6748C106.543 30.8112 106.461 30.9608 106.406 31.1234C106.33 31.348 106.307 31.5302 106.337 31.67C106.372 31.8202 106.438 31.933 106.533 32.0086C106.626 32.0918 106.726 32.1518 106.835 32.1886C107.245 32.328 107.632 32.1788 107.997 31.7412C108.359 31.3113 108.702 30.6163 109.028 29.6561L113.728 15.8105L112.532 15.4044L112.725 14.8353L115.664 15.8328L111.216 28.935C110.909 29.841 110.569 30.5761 110.196 31.1404C109.83 31.7073 109.449 32.1306 109.052 32.4103C108.652 32.6978 108.254 32.8649 107.859 32.9119C107.46 32.9666 107.083 32.9335 106.726 32.8126ZM115.5 13.3028C115.143 13.1819 114.882 12.9593 114.716 12.6352C114.552 12.3032 114.529 11.963 114.648 11.6146C114.766 11.2661 114.99 11.0139 115.319 10.858C115.651 10.6943 115.995 10.6729 116.351 10.7939C116.684 10.9069 116.929 11.1281 117.084 11.4573C117.243 11.7789 117.263 12.1139 117.145 12.4623C117.027 12.8108 116.805 13.0682 116.482 13.2345C116.16 13.393 115.832 13.4158 115.5 13.3028Z" fill="#DCDCDC"/>
<path d="M117.866 31.2495C117.332 31.0007 116.949 30.6234 116.715 30.1176C116.482 29.6118 116.375 29.0202 116.393 28.3429C116.414 27.6582 116.535 26.925 116.755 26.1434C116.986 25.3578 117.29 24.5611 117.667 23.7533C118.129 22.7601 118.616 21.931 119.124 21.2659C119.633 20.6008 120.14 20.093 120.647 19.7427C121.164 19.3883 121.656 19.1755 122.122 19.1042C122.588 19.0329 123.017 19.0888 123.411 19.272C123.862 19.4828 124.195 19.8048 124.408 20.2381C124.621 20.6713 124.728 21.1768 124.729 21.7548C124.741 22.3289 124.663 22.942 124.494 23.5942C124.329 24.2389 124.1 24.8763 123.806 25.5063C123.737 25.6545 123.67 25.799 123.604 25.9398C123.541 26.0732 123.47 26.2069 123.39 26.3408L119.232 24.402L119.486 23.8572L122.02 25.0392C122.48 24.0534 122.841 23.193 123.103 22.4578C123.371 21.7261 123.516 21.135 123.537 20.6844C123.558 20.2339 123.431 19.9446 123.156 19.8167C122.89 19.6923 122.57 19.7688 122.197 20.046C121.835 20.3193 121.424 20.8043 120.963 21.5011C120.511 22.2012 120.016 23.1257 119.481 24.2745C119.111 25.0675 118.782 25.8209 118.494 26.5349C118.206 27.2489 117.992 27.8931 117.85 28.4677C117.716 29.0457 117.68 29.5297 117.742 29.9194C117.811 30.3127 118.012 30.587 118.346 30.7425C118.85 30.9776 119.308 31.0199 119.721 30.8696C120.142 30.7227 120.473 30.5253 120.715 30.2772L121.064 30.7781C120.718 31.1314 120.255 31.3709 119.673 31.4966C119.098 31.6256 118.496 31.5433 117.866 31.2495Z" fill="#DCDCDC"/>
<path d="M123.917 34.9604C123.435 34.6676 123.1 34.2494 122.914 33.7057C122.727 33.1621 122.665 32.5405 122.726 31.841C122.798 31.1387 122.974 30.399 123.254 29.6221C123.546 28.8423 123.922 28.0715 124.385 27.3094C124.949 26.3796 125.533 25.6294 126.138 25.0589C126.743 24.4883 127.333 24.067 127.909 23.795C128.493 23.5272 129.034 23.3918 129.533 23.3887C130.039 23.3898 130.471 23.4985 130.828 23.7149C131.282 23.9907 131.586 24.3568 131.739 24.8134C131.897 25.2629 131.929 25.7463 131.835 26.2633C131.748 26.7845 131.563 27.2794 131.278 27.7478C131.071 28.0904 130.852 28.3165 130.623 28.4261C130.398 28.5288 130.181 28.5165 129.971 28.3892C129.754 28.2577 129.632 28.0734 129.604 27.8362C129.582 27.6033 129.648 27.361 129.8 27.1093C129.911 26.9275 130.03 26.7942 130.158 26.7093C130.298 26.6216 130.431 26.5353 130.559 26.4505C130.691 26.3585 130.806 26.2322 130.904 26.0714C131.133 25.6939 131.209 25.3479 131.132 25.0333C131.055 24.7188 130.873 24.4745 130.587 24.3006C130.3 24.1267 129.964 24.1285 129.579 24.3061C129.205 24.4809 128.813 24.7735 128.401 25.1838C127.989 25.5941 127.582 26.0688 127.178 26.6082C126.781 27.1517 126.415 27.6997 126.08 28.252C125.736 28.8183 125.397 29.4252 125.061 30.0729C124.737 30.7178 124.467 31.3433 124.252 31.9496C124.049 32.553 123.952 33.0826 123.962 33.5385C123.98 33.9986 124.156 34.3304 124.492 34.534C124.884 34.7716 125.268 34.8381 125.648 34.7334C126.027 34.6287 126.353 34.4536 126.626 34.2081L126.834 34.7645C126.489 35.0335 126.056 35.22 125.533 35.3239C125.015 35.4209 124.477 35.2997 123.917 34.9604Z" fill="#DCDCDC"/>
<path d="M128.936 38.8293C128.676 38.6301 128.46 38.3873 128.289 38.1008C128.112 37.8208 128.044 37.4856 128.086 37.0952C128.135 36.7097 128.353 36.2639 128.741 35.7579L134.917 27.7099L133.778 26.8362L134.144 26.3594L135.283 27.2331C135.513 27.2552 135.799 27.1709 136.142 26.98C136.496 26.7876 136.867 26.5316 137.257 26.2121C137.657 25.891 138.029 25.5475 138.372 25.1816L138.878 25.5699L136.743 28.3532L138.105 29.3986L137.739 29.8754L136.377 28.83L129.686 37.5495C129.492 37.8025 129.415 38.0167 129.455 38.1922C129.496 38.3676 129.568 38.4952 129.672 38.5749C129.808 38.6794 129.951 38.7423 130.099 38.7635C130.259 38.7833 130.388 38.7839 130.484 38.7653L130.473 39.3442C130.254 39.3614 130.011 39.3293 129.743 39.2479C129.478 39.1779 129.208 39.0384 128.936 38.8293Z" fill="#DCDCDC"/>
<path d="M136.613 46.4149L137.074 46.0286L137.831 46.9306L151.005 35.8763L150.248 34.9743L150.708 34.5879L152.648 36.8995L144.586 43.6645L149.713 42.9812L149.019 42.1543L149.479 41.768L151.34 43.9856L150.88 44.3719L150.178 43.5356L146.626 44.1304L141.954 51.845L142.593 52.6062L142.133 52.9925L139.57 49.9386L140.03 49.5523L140.677 50.3228L144.382 44.2039L143.721 44.3899L139.014 48.3401L139.636 49.0825L139.176 49.4688L136.613 46.4149Z" fill="#DCDCDC"/>
<path d="M140.73 51.9442L141.23 51.6102L141.912 52.6301L151.591 46.1629L150.909 45.143L151.409 44.809L153.112 47.3588L142.934 54.16L143.622 55.19L143.123 55.5242L140.73 51.9442ZM154.536 45.2719C154.331 44.9659 154.262 44.6337 154.328 44.2752C154.4 43.9123 154.589 43.6286 154.895 43.4242C155.2 43.2197 155.532 43.1558 155.888 43.2326C156.251 43.3048 156.537 43.4973 156.746 43.81C156.941 44.1024 157.001 44.4267 156.924 44.7828C156.854 45.1345 156.666 45.4125 156.36 45.617C156.054 45.8214 155.722 45.8909 155.363 45.8255C155.012 45.7556 154.736 45.5711 154.536 45.2719Z" fill="#DCDCDC"/>
<path d="M145.516 60.8366C145.365 60.5466 145.272 60.2353 145.237 59.9033C145.195 59.5745 145.276 59.2425 145.479 58.9062C145.685 58.5774 146.072 58.2656 146.638 57.9712L155.636 53.2869L154.973 52.0139L155.506 51.7363L156.169 53.0094C156.368 53.1268 156.664 53.1713 157.054 53.143C157.456 53.1182 157.901 53.0433 158.39 52.9183C158.888 52.7967 159.371 52.6425 159.836 52.4557L160.13 53.0215L157.019 54.6413L157.812 56.1645L157.279 56.442L156.485 54.9188L146.737 59.9938C146.454 60.141 146.293 60.3029 146.256 60.479C146.219 60.6551 146.23 60.8012 146.291 60.9173C146.37 61.0699 146.473 61.1871 146.598 61.2689C146.735 61.3545 146.851 61.409 146.946 61.4336L146.692 61.9531C146.486 61.8762 146.279 61.7443 146.071 61.5573C145.859 61.3818 145.675 61.1414 145.516 60.8366Z" fill="#DCDCDC"/>
<path d="M155.648 72.0256C155.542 71.6309 155.539 71.2422 155.64 70.8595C155.751 70.4828 155.943 70.1562 156.216 69.8798C156.489 69.6034 156.819 69.4137 157.206 69.3101C157.593 69.206 157.97 69.2065 158.337 69.3117C158.711 69.4142 159.037 69.6023 159.313 69.8755C159.592 70.1562 159.784 70.4942 159.89 70.8895C159.991 71.2684 159.99 71.6413 159.885 72.0082C159.78 72.3751 159.59 72.6967 159.318 72.9726C159.055 73.255 158.73 73.448 158.343 73.5515C157.955 73.6551 157.573 73.6519 157.197 73.5412C156.822 73.4381 156.494 73.2555 156.211 72.9922C155.937 72.7272 155.75 72.405 155.648 72.0256Z" fill="#DCDCDC"/>
<path d="M145.191 84.7612L145.792 84.735L145.843 85.9115L163.6 85.1362L163.549 83.9598L164.15 83.9336L164.282 86.9604L162.823 87.0242C162.989 87.0662 163.197 87.1512 163.449 87.2793C163.699 87.4074 163.925 87.5901 164.123 87.8267C164.322 88.072 164.429 88.3784 164.446 88.7458C164.466 89.2278 164.265 89.683 163.842 90.1104C163.427 90.5378 162.743 90.8992 161.79 91.1947C160.837 91.4902 159.572 91.6723 157.995 91.741C156.378 91.8113 155.081 91.7328 154.105 91.5055C153.13 91.2863 152.42 90.9652 151.976 90.5427C151.532 90.1202 151.298 89.6514 151.276 89.1367C151.261 88.7933 151.338 88.5038 151.508 88.2672C151.678 88.0387 151.875 87.8583 152.098 87.7258C152.33 87.601 152.527 87.5225 152.69 87.4908L145.925 87.7863L145.977 88.9753L145.377 89.0015L145.191 84.7612ZM152.06 88.808C152.07 89.0364 152.213 89.2267 152.49 89.3782C152.775 89.5298 153.173 89.6475 153.684 89.7315C154.195 89.8236 154.803 89.8787 155.508 89.8972C156.221 89.9152 157.011 89.9054 157.876 89.8678C158.694 89.8318 159.448 89.7746 160.141 89.695C160.833 89.6159 161.434 89.5118 161.944 89.3831C162.454 89.2545 162.845 89.1024 163.115 88.9268C163.394 88.7589 163.529 88.5692 163.52 88.3566C163.508 88.0867 163.364 87.8643 163.086 87.6876C162.808 87.5197 162.471 87.3916 162.074 87.3022C161.686 87.2128 161.307 87.1556 160.937 87.131L155.006 87.39C154.533 87.427 154.066 87.5045 153.604 87.6228C153.151 87.7411 152.777 87.8964 152.483 88.0894C152.189 88.2906 152.047 88.5299 152.06 88.808Z" fill="#DCDCDC"/>
<path d="M151.236 91.4961L151.835 91.5353L151.757 92.7227L163.373 93.4838L163.451 92.297L164.051 92.3362L163.859 95.2736L162.52 95.2474C162.625 95.279 162.787 95.3712 163.006 95.5249C163.226 95.6786 163.425 95.8885 163.604 96.1546C163.783 96.4201 163.861 96.7287 163.838 97.0792C163.812 97.4875 163.647 97.8125 163.344 98.0551C163.041 98.2977 162.645 98.4683 162.155 98.567C161.665 98.6662 161.126 98.6962 160.539 98.658C160.139 98.6318 159.834 98.5419 159.622 98.3887C159.419 98.236 159.326 98.0294 159.343 97.7683C159.359 97.5235 159.466 97.3376 159.662 97.2111C159.867 97.0934 160.132 97.0454 160.459 97.0667C160.663 97.0803 160.836 97.1244 160.978 97.1991C161.121 97.2825 161.263 97.3616 161.406 97.4363C161.556 97.5115 161.742 97.5568 161.962 97.5709C162.362 97.5971 162.656 97.5426 162.846 97.4079C163.042 97.2815 163.149 97.0999 163.164 96.8633C163.184 96.5613 163.059 96.2827 162.789 96.027C162.526 95.7806 162.179 95.5772 161.747 95.4181C161.323 95.2589 160.882 95.1646 160.426 95.1346L151.637 94.5589L151.557 95.7828L150.957 95.7435L151.236 91.4961Z" fill="#DCDCDC"/>
<path d="M149.479 102.014C149.557 101.571 149.777 101.174 150.138 100.822C150.497 100.479 150.986 100.199 151.605 99.9852C152.224 99.7704 152.96 99.6466 153.813 99.6145C154.666 99.5823 155.627 99.6603 156.699 99.8494C157.866 100.055 158.841 100.323 159.621 100.651C160.401 100.988 161.013 101.357 161.456 101.759C161.899 102.17 162.198 102.592 162.354 103.026C162.518 103.462 162.563 103.889 162.489 104.308C162.416 104.719 162.229 105.101 161.926 105.454C161.631 105.809 161.205 106.104 160.649 106.338C160.093 106.572 159.391 106.714 158.544 106.763C157.696 106.813 156.688 106.735 155.521 106.529C154.45 106.341 153.52 106.081 152.731 105.751C151.942 105.421 151.294 105.049 150.785 104.635C150.277 104.222 149.914 103.789 149.694 103.335C149.474 102.889 149.402 102.449 149.479 102.014ZM150.095 102.123C150.017 102.565 150.454 103.008 151.406 103.45C152.358 103.891 153.84 104.29 155.853 104.645C157.842 104.996 159.323 105.12 160.296 105.018C161.278 104.916 161.807 104.644 161.885 104.202C161.965 103.751 161.561 103.31 160.674 102.879C159.794 102.45 158.36 102.06 156.371 101.71C154.357 101.355 152.828 101.222 151.782 101.312C150.737 101.401 150.175 101.671 150.095 102.123Z" fill="#DCDCDC"/>
<path d="M142.789 103.966C142.908 103.558 143.133 103.24 143.463 103.012C143.793 102.785 144.19 102.649 144.654 102.606C145.119 102.563 145.614 102.617 146.14 102.77C146.517 102.881 146.786 103.04 146.946 103.249C147.101 103.447 147.143 103.668 147.072 103.911C147.001 104.155 146.855 104.308 146.632 104.371C146.409 104.433 146.153 104.422 145.862 104.338C145.658 104.278 145.485 104.198 145.344 104.097C145.193 104.003 145.052 103.902 144.922 103.795C144.78 103.694 144.627 103.62 144.463 103.572C144.235 103.506 144.052 103.491 143.914 103.527C143.765 103.569 143.655 103.639 143.584 103.738C143.505 103.834 143.449 103.937 143.417 104.047C143.296 104.463 143.462 104.844 143.915 105.188C144.36 105.531 145.069 105.845 146.043 106.128L160.08 110.22L160.434 109.007L161.011 109.175L160.142 112.154L146.859 108.283C145.94 108.015 145.191 107.707 144.611 107.359C144.029 107.019 143.589 106.656 143.292 106.272C142.988 105.885 142.803 105.495 142.739 105.102C142.667 104.706 142.684 104.327 142.789 103.966ZM162.663 111.88C162.768 111.519 162.979 111.248 163.295 111.067C163.62 110.89 163.959 110.852 164.312 110.955C164.665 111.058 164.927 111.271 165.097 111.593C165.276 111.917 165.312 112.26 165.206 112.621C165.108 112.959 164.898 113.213 164.576 113.383C164.262 113.555 163.927 113.59 163.574 113.487C163.221 113.384 162.954 113.174 162.774 112.858C162.601 112.543 162.564 112.217 162.663 111.88Z" fill="#DCDCDC"/>
<path d="M144.839 115.029C145.064 114.485 145.424 114.086 145.919 113.83C146.415 113.575 147.001 113.442 147.679 113.43C148.363 113.422 149.101 113.511 149.891 113.696C150.686 113.893 151.496 114.162 152.319 114.503C153.331 114.922 154.181 115.372 154.868 115.851C155.555 116.33 156.084 116.815 156.456 117.305C156.832 117.806 157.066 118.288 157.158 118.751C157.25 119.214 157.212 119.646 157.047 120.046C156.856 120.507 156.548 120.853 156.125 121.085C155.702 121.317 155.201 121.446 154.624 121.472C154.051 121.509 153.435 121.457 152.776 121.317C152.124 121.18 151.478 120.979 150.836 120.713C150.685 120.65 150.537 120.589 150.393 120.53C150.258 120.473 150.121 120.408 149.983 120.333L151.739 116.095L152.294 116.325L151.224 118.909C152.229 119.325 153.105 119.648 153.85 119.877C154.593 120.114 155.19 120.233 155.641 120.234C156.092 120.234 156.376 120.095 156.491 119.816C156.604 119.544 156.514 119.228 156.22 118.867C155.932 118.517 155.429 118.128 154.713 117.698C153.994 117.276 153.048 116.823 151.877 116.338C151.069 116.003 150.302 115.707 149.576 115.451C148.851 115.195 148.198 115.008 147.617 114.892C147.034 114.783 146.549 114.768 146.162 114.847C145.773 114.933 145.507 115.146 145.366 115.487C145.153 116 145.131 116.46 145.299 116.866C145.464 117.28 145.676 117.602 145.935 117.833L145.449 118.203C145.081 117.873 144.822 117.421 144.671 116.845C144.517 116.277 144.573 115.671 144.839 115.029Z" fill="#DCDCDC"/>
<path d="M141.393 121.235C141.664 120.74 142.068 120.388 142.603 120.177C143.138 119.968 143.756 119.878 144.458 119.908C145.162 119.95 145.909 120.094 146.697 120.339C147.489 120.597 148.276 120.94 149.057 121.368C150.01 121.891 150.786 122.443 151.382 123.022C151.978 123.601 152.425 124.172 152.722 124.736C153.015 125.307 153.174 125.842 153.198 126.341C153.22 126.847 153.13 127.282 152.929 127.648C152.673 128.114 152.321 128.434 151.872 128.607C151.429 128.784 150.948 128.837 150.427 128.766C149.902 128.702 149.4 128.538 148.92 128.274C148.568 128.082 148.333 127.873 148.213 127.649C148.101 127.429 148.104 127.211 148.222 126.996C148.344 126.774 148.523 126.644 148.759 126.605C148.99 126.573 149.235 126.628 149.494 126.77C149.679 126.873 149.818 126.986 149.908 127.11C150.002 127.245 150.094 127.375 150.185 127.499C150.282 127.627 150.413 127.737 150.578 127.827C150.965 128.039 151.314 128.1 151.625 128.01C151.936 127.919 152.172 127.727 152.333 127.433C152.495 127.139 152.478 126.803 152.284 126.427C152.093 126.06 151.784 125.681 151.356 125.288C150.928 124.894 150.436 124.508 149.879 124.128C149.319 123.755 148.756 123.414 148.189 123.103C147.609 122.784 146.987 122.472 146.326 122.164C145.667 121.869 145.031 121.627 144.416 121.438C143.804 121.261 143.27 121.188 142.816 121.218C142.357 121.255 142.033 121.446 141.844 121.79C141.624 122.192 141.574 122.579 141.695 122.954C141.816 123.328 142.006 123.646 142.263 123.909L141.716 124.14C141.432 123.807 141.227 123.383 141.1 122.865C140.981 122.352 141.078 121.809 141.393 121.235Z" fill="#DCDCDC"/>
<path d="M137.748 126.419C137.935 126.151 138.169 125.925 138.447 125.741C138.719 125.552 139.051 125.47 139.443 125.495C139.83 125.526 140.285 125.725 140.808 126.091L149.117 131.909L149.94 130.734L150.433 131.078L149.61 132.254C149.598 132.485 149.695 132.768 149.9 133.101C150.108 133.446 150.38 133.806 150.716 134.181C151.054 134.568 151.414 134.924 151.794 135.251L151.428 135.773L148.555 133.761L147.569 135.168L147.077 134.823L148.062 133.417L139.059 127.113C138.798 126.93 138.58 126.862 138.407 126.91C138.233 126.958 138.109 127.036 138.034 127.144C137.936 127.284 137.879 127.429 137.864 127.579C137.851 127.74 137.856 127.868 137.879 127.964L137.3 127.977C137.273 127.759 137.295 127.514 137.365 127.244C137.423 126.975 137.551 126.701 137.748 126.419Z" fill="#DCDCDC"/>
<path d="M130.506 134.42L130.912 134.863L130.044 135.659L141.663 148.338L142.531 147.542L142.937 147.985L140.712 150.024L133.602 142.264L134.508 147.357L135.304 146.627L135.71 147.071L133.576 149.026L133.169 148.583L133.974 147.846L133.225 144.323L125.314 139.993L124.581 140.664L124.176 140.221L127.115 137.527L127.521 137.971L126.779 138.65L133.054 142.084L132.839 141.432L128.688 136.902L127.973 137.556L127.567 137.113L130.506 134.42Z" fill="#DCDCDC"/>
<path d="M125.16 138.775L125.515 139.26L124.526 139.986L131.409 149.373L132.398 148.648L132.754 149.133L130.281 150.946L123.042 141.074L122.043 141.806L121.688 141.321L125.16 138.775ZM132.428 152.277C132.724 152.059 133.053 151.975 133.414 152.025C133.78 152.081 134.072 152.258 134.29 152.555C134.507 152.851 134.585 153.179 134.524 153.539C134.468 153.904 134.288 154.198 133.984 154.421C133.701 154.629 133.38 154.702 133.021 154.641C132.666 154.586 132.38 154.411 132.162 154.114C131.945 153.817 131.861 153.488 131.911 153.128C131.965 152.773 132.138 152.49 132.428 152.277Z" fill="#DCDCDC"/>
<path d="M116.486 143.944C116.77 143.78 117.076 143.674 117.407 143.625C117.733 143.569 118.069 143.635 118.413 143.823C118.751 144.015 119.079 144.388 119.398 144.94L124.47 153.725L125.713 153.007L126.013 153.528L124.771 154.245C124.662 154.45 124.63 154.747 124.676 155.136C124.718 155.536 124.812 155.978 124.959 156.46C125.102 156.953 125.277 157.428 125.484 157.885L124.931 158.204L123.177 155.166L121.69 156.024L121.389 155.504L122.877 154.645L117.381 145.127C117.222 144.85 117.054 144.698 116.876 144.668C116.698 144.638 116.553 144.656 116.439 144.722C116.291 144.807 116.178 144.915 116.102 145.044C116.022 145.185 115.972 145.303 115.952 145.399L115.422 145.168C115.49 144.958 115.613 144.746 115.79 144.53C115.957 144.311 116.189 144.115 116.486 143.944Z" fill="#DCDCDC"/>
<path d="M105.746 154.557C106.137 154.434 106.525 154.415 106.911 154.498C107.292 154.592 107.627 154.77 107.915 155.031C108.203 155.291 108.407 155.613 108.528 155.995C108.648 156.377 108.664 156.754 108.575 157.125C108.489 157.504 108.316 157.837 108.054 158.125C107.786 158.415 107.457 158.622 107.067 158.745C106.693 158.863 106.32 158.877 105.949 158.789C105.578 158.7 105.248 158.525 104.961 158.265C104.667 158.014 104.46 157.698 104.34 157.316C104.219 156.933 104.206 156.552 104.3 156.171C104.387 155.792 104.555 155.455 104.805 155.162C105.058 154.877 105.372 154.675 105.746 154.557Z" fill="#DCDCDC"/>
<path d="M92.5687 144.664L92.6211 145.263L91.4484 145.366L92.9972 163.072L94.1704 162.969L94.2228 163.568L91.2047 163.832L91.0771 162.378C91.0428 162.545 90.9665 162.757 90.8498 163.013C90.7326 163.27 90.5598 163.502 90.3319 163.711C90.0958 163.921 89.7943 164.042 89.428 164.074C88.9471 164.116 88.4837 163.935 88.0383 163.53C87.5929 163.134 87.202 162.467 86.8657 161.527C86.5288 160.588 86.2916 159.332 86.1542 157.76C86.013 156.147 86.0348 154.848 86.2197 153.863C86.3963 152.879 86.6858 152.156 87.0887 151.694C87.4915 151.232 87.9495 150.979 88.463 150.934C88.8049 150.904 89.0982 150.968 89.3419 151.128C89.5774 151.287 89.7665 151.477 89.9083 151.693C90.0435 151.92 90.1302 152.113 90.1689 152.274L89.5784 145.529L88.3932 145.633L88.3409 145.034L92.5687 144.664ZM88.8256 151.702C88.5977 151.722 88.414 151.874 88.2744 152.157C88.1359 152.448 88.0356 152.851 87.974 153.365C87.9042 153.88 87.8753 154.49 87.8879 155.195C87.901 155.908 87.9451 156.697 88.0209 157.56C88.0918 158.375 88.1823 159.126 88.2918 159.814C88.4014 160.502 88.5312 161.098 88.6822 161.603C88.8332 162.106 89.0022 162.49 89.1892 162.752C89.3691 163.024 89.5648 163.15 89.7764 163.132C90.0451 163.108 90.2615 162.954 90.4256 162.669C90.581 162.384 90.695 162.042 90.7664 161.642C90.8389 161.249 90.8792 160.868 90.888 160.498L90.3706 154.584C90.3128 154.113 90.2152 153.65 90.0767 153.193C89.9388 152.746 89.7676 152.379 89.5616 152.094C89.3478 151.809 89.1025 151.678 88.8256 151.702Z" fill="#DCDCDC"/>
<path d="M86.1026 150.994L86.0895 151.594L84.8999 151.568L84.6459 163.207L85.8354 163.232L85.8224 163.834L82.8795 163.769L82.8474 162.431C82.8201 162.537 82.735 162.703 82.5911 162.929C82.4466 163.154 82.246 163.362 81.9882 163.553C81.7308 163.744 81.4261 163.836 81.0745 163.828C80.6656 163.819 80.3336 163.668 80.0784 163.377C79.8227 163.085 79.6352 162.696 79.5147 162.211C79.3942 161.726 79.3408 161.189 79.3533 160.6C79.3621 160.2 79.4384 159.89 79.5823 159.673C79.7257 159.463 79.9285 159.361 80.1902 159.367C80.4355 159.372 80.6258 159.47 80.7604 159.662C80.8869 159.861 80.9469 160.124 80.9393 160.451C80.9349 160.655 80.8984 160.83 80.8297 160.976C80.7534 161.122 80.6803 161.267 80.6116 161.413C80.5429 161.567 80.5064 161.754 80.5015 161.975C80.4928 162.376 80.5598 162.667 80.7032 162.851C80.8378 163.041 81.0238 163.139 81.2609 163.145C81.5635 163.151 81.8366 163.014 82.0798 162.733C82.3147 162.46 82.5023 162.105 82.6429 161.666C82.783 161.235 82.8583 160.791 82.8686 160.333L83.0605 151.528L81.8339 151.502L81.8475 150.9L86.1026 150.994Z" fill="#DCDCDC"/>
<path d="M75.5211 149.7C75.9671 149.759 76.3738 149.961 76.7407 150.306C77.0994 150.65 77.3998 151.127 77.6413 151.736C77.8828 152.345 78.0382 153.075 78.1074 153.926C78.1772 154.776 78.1407 155.74 77.9989 156.819C77.8441 157.994 77.6195 158.979 77.3251 159.774C77.0231 160.567 76.6807 161.194 76.298 161.655C75.9077 162.115 75.4988 162.432 75.0719 162.607C74.6434 162.79 74.2187 162.854 73.7967 162.798C73.3835 162.744 72.9937 162.572 72.6274 162.285C72.2599 162.006 71.947 161.593 71.6891 161.048C71.4307 160.503 71.2584 159.808 71.1717 158.963C71.0851 158.119 71.1189 157.109 71.2737 155.933C71.4154 154.855 71.6341 153.915 71.9295 153.112C72.225 152.31 72.5679 151.646 72.9588 151.12C73.3497 150.594 73.7673 150.212 74.2111 149.973C74.6467 149.734 75.0834 149.643 75.5211 149.7ZM75.4399 150.32C74.9939 150.262 74.5709 150.717 74.1707 151.688C73.7711 152.657 73.4375 154.156 73.1709 156.183C72.907 158.185 72.8476 159.671 72.9926 160.638C73.1365 161.614 73.4309 162.131 73.8769 162.19C74.331 162.25 74.7535 161.827 75.145 160.922C75.5353 160.024 75.8624 158.575 76.1263 156.572C76.3929 154.545 76.4588 153.011 76.3236 151.971C76.1884 150.93 75.8935 150.38 75.4399 150.32Z" fill="#DCDCDC"/>
<path d="M73.2757 143.101C73.689 143.201 74.0161 143.412 74.2581 143.732C74.4997 144.052 74.6523 144.443 74.7161 144.905C74.7799 145.367 74.7466 145.864 74.6163 146.396C74.5231 146.777 74.3754 147.052 74.1742 147.222C73.9828 147.386 73.7637 147.437 73.5173 147.377C73.2714 147.317 73.1116 147.177 73.0391 146.957C72.9666 146.737 72.9666 146.481 73.0386 146.187C73.0887 145.98 73.1613 145.804 73.2561 145.659C73.3444 145.504 73.4388 145.359 73.5396 145.223C73.6339 145.078 73.7015 144.922 73.7424 144.755C73.7986 144.525 73.8056 144.341 73.7637 144.205C73.7152 144.058 73.6399 143.952 73.5385 143.884C73.4393 143.81 73.3335 143.759 73.2223 143.731C72.8014 143.628 72.4285 143.811 72.1036 144.278C71.7809 144.738 71.4985 145.461 71.2575 146.446L67.7826 160.648L69.0098 160.948L68.8669 161.532L65.8521 160.795L69.1412 147.354C69.3685 146.425 69.6433 145.663 69.9655 145.069C70.28 144.472 70.6229 144.017 70.9942 143.704C71.3671 143.382 71.7493 143.181 72.1396 143.1C72.5316 143.011 72.9105 143.011 73.2757 143.101ZM66.2365 163.301C66.6023 163.39 66.882 163.589 67.0755 163.897C67.2674 164.213 67.3197 164.55 67.2325 164.908C67.1447 165.266 66.9441 165.536 66.6296 165.72C66.3134 165.912 65.9721 165.963 65.6068 165.874C65.2655 165.791 65.0028 165.592 64.8185 165.277C64.6326 164.971 64.5835 164.639 64.6708 164.281C64.758 163.924 64.9564 163.648 65.2644 163.454C65.5708 163.268 65.8952 163.217 66.2365 163.301Z" fill="#DCDCDC"/>
<path d="M62.3129 145.632C62.8663 145.833 63.2811 146.175 63.5575 146.659C63.8339 147.142 63.9926 147.722 64.034 148.398C64.0722 149.082 64.0155 149.823 63.8645 150.621C63.7026 151.424 63.4698 152.244 63.1645 153.082C62.7899 154.112 62.3783 154.98 61.9291 155.687C61.4804 156.394 61.0192 156.944 60.5455 157.337C60.0614 157.735 59.5898 157.99 59.1313 158.101C58.6734 158.213 58.2405 158.195 57.8332 158.047C57.3644 157.876 57.0051 157.584 56.7549 157.171C56.5052 156.758 56.3542 156.264 56.303 155.688C56.2408 155.118 56.2653 154.5 56.3766 153.835C56.485 153.179 56.6584 152.524 56.8961 151.87C56.9517 151.717 57.0062 151.567 57.0596 151.421C57.1098 151.283 57.1692 151.143 57.2379 151.003L61.5486 152.572L61.3431 153.137L58.7153 152.18C58.343 153.202 58.0589 154.091 57.8621 154.846C57.6582 155.598 57.5656 156.2 57.5841 156.651C57.6026 157.101 57.7542 157.378 58.0388 157.482C58.3152 157.582 58.6276 157.479 58.9748 157.17C59.3118 156.866 59.6787 156.347 60.0766 155.613C60.4664 154.876 60.8786 153.912 61.312 152.721C61.6113 151.898 61.873 151.119 62.0976 150.383C62.3222 149.647 62.4797 148.986 62.5708 148.401C62.6542 147.814 62.6482 147.329 62.5522 146.945C62.4492 146.56 62.2246 146.304 61.879 146.178C61.3561 145.988 60.896 145.986 60.4975 146.172C60.0913 146.354 59.779 146.58 59.5593 146.848L59.1684 146.38C59.4818 145.998 59.9223 145.719 60.4915 145.543C61.0525 145.364 61.6598 145.394 62.3129 145.632Z" fill="#DCDCDC"/>
<path d="M55.9642 142.461C56.4701 142.711 56.8397 143.099 57.0731 143.624C57.3064 144.149 57.4231 144.763 57.4231 145.465C57.4127 146.171 57.3015 146.923 57.09 147.722C56.8675 148.524 56.5595 149.324 56.1654 150.124C55.6845 151.099 55.1677 151.898 54.6149 152.519C54.0625 153.139 53.5111 153.611 52.9606 153.932C52.4028 154.249 51.8753 154.432 51.3782 154.478C50.8738 154.521 50.4345 154.451 50.0605 154.266C49.5837 154.031 49.2491 153.693 49.0565 153.251C48.8603 152.817 48.7863 152.339 48.8346 151.815C48.8756 151.289 49.0173 150.779 49.2596 150.288C49.4368 149.928 49.6348 149.684 49.8535 149.555C50.0686 149.433 50.2862 149.426 50.5062 149.535C50.7336 149.647 50.8717 149.82 50.9205 150.054C50.962 150.284 50.9176 150.531 50.7875 150.795C50.6934 150.986 50.5863 151.129 50.4661 151.225C50.335 151.324 50.2094 151.422 50.0893 151.518C49.9654 151.621 49.862 151.756 49.7788 151.925C49.5835 152.321 49.5379 152.673 49.6419 152.979C49.746 153.286 49.9484 153.513 50.2491 153.662C50.5498 153.81 50.8843 153.779 51.2525 153.569C51.6098 153.361 51.9755 153.036 52.3498 152.592C52.724 152.147 53.0888 151.638 53.444 151.066C53.7919 150.49 54.1088 149.912 54.3945 149.333C54.6874 148.738 54.9731 148.104 55.2506 147.43C55.5177 146.759 55.7319 146.112 55.8928 145.49C56.0432 144.871 56.0934 144.335 56.0432 143.881C55.986 143.425 55.781 143.109 55.4288 142.936C55.0183 142.733 54.6285 142.701 54.26 142.838C53.8914 142.975 53.5817 143.178 53.3308 143.447L53.0755 142.91C53.3957 142.613 53.8114 142.389 54.3226 142.24C54.8302 142.098 55.3776 142.172 55.9642 142.461Z" fill="#DCDCDC"/>
<path d="M50.6239 139.042C50.8997 139.218 51.1357 139.441 51.3319 139.712C51.5325 139.975 51.6289 140.303 51.6212 140.696C51.6066 141.084 51.4279 141.547 51.0852 142.086L45.6347 150.641L46.8451 151.412L46.5221 151.919L45.3117 151.148C45.0803 151.146 44.8024 151.255 44.478 151.475C44.1424 151.697 43.7944 151.985 43.4342 152.337C43.0628 152.692 42.7224 153.066 42.4129 153.461L41.875 153.118L43.7599 150.159L42.3116 149.237L42.6345 148.73L44.0828 149.652L49.9881 140.383C50.1595 140.114 50.2173 139.894 50.1616 139.723C50.1058 139.551 50.0228 139.431 49.9125 139.36C49.7676 139.268 49.6203 139.217 49.4703 139.209C49.3092 139.204 49.1812 139.214 49.0865 139.241L49.0473 138.663C49.2643 138.627 49.5095 138.638 49.7829 138.696C50.0539 138.743 50.3342 138.858 50.6239 139.042Z" fill="#DCDCDC"/>
<path d="M42.316 132.156L41.891 132.581L41.0584 131.748L28.8979 143.908L29.7306 144.741L29.3056 145.166L27.1719 143.032L34.6138 135.59L29.5658 136.718L30.3291 137.481L29.9041 137.906L27.8571 135.859L28.2821 135.434L29.0541 136.206L32.5408 135.304L36.5221 127.211L35.8195 126.509L36.2445 126.084L39.0634 128.903L38.6384 129.328L37.9272 128.617L34.77 135.035L35.4118 134.793L39.7573 130.447L39.0721 129.762L39.4971 129.336L42.316 132.156Z" fill="#DCDCDC"/>
<path d="M37.73 127.008L37.2612 127.384L36.4935 126.427L27.415 133.714L28.1828 134.67L27.714 135.047L25.7946 132.655L35.3418 124.993L34.5664 124.027L35.0351 123.65L37.73 127.008ZM24.5586 134.858C24.789 135.145 24.8872 135.47 24.8533 135.833C24.813 136.201 24.6494 136.5 24.3623 136.73C24.0754 136.961 23.7511 137.053 23.3896 137.008C23.0218 136.967 22.7201 136.8 22.4847 136.507C22.2645 136.233 22.1772 135.915 22.2226 135.554C22.2616 135.197 22.4246 134.904 22.7116 134.673C22.9986 134.443 23.3235 134.345 23.6863 134.379C24.0426 134.418 24.3334 134.578 24.5586 134.858Z" fill="#DCDCDC"/>
<path d="M32.1902 118.566C32.3659 118.842 32.4855 119.144 32.5491 119.472C32.6195 119.796 32.5682 120.134 32.3953 120.486C32.218 120.832 31.8603 121.177 31.3224 121.519L22.7668 126.97L23.5379 128.18L23.031 128.503L22.2599 127.293C22.051 127.193 21.753 127.175 21.3661 127.237C20.9678 127.296 20.5311 127.41 20.0557 127.577C19.5691 127.742 19.1023 127.937 18.6552 128.163L18.3125 127.626L21.2713 125.741L20.3486 124.292L20.8555 123.969L21.7782 125.418L31.0476 119.513C31.3166 119.341 31.462 119.166 31.4838 118.987C31.5057 118.809 31.4815 118.664 31.4112 118.554C31.3189 118.409 31.2066 118.301 31.0743 118.23C30.9305 118.157 30.8101 118.113 30.7129 118.097L30.9215 117.557C31.1335 117.616 31.3512 117.729 31.5746 117.897C31.8004 118.054 32.0056 118.277 32.1902 118.566Z" fill="#DCDCDC"/>
<path d="M21.1166 108.301C21.2565 108.685 21.2929 109.072 21.2259 109.462C21.1485 109.847 20.9859 110.189 20.7379 110.488C20.49 110.788 20.1777 111.006 19.8012 111.142C19.4246 111.28 19.0491 111.312 18.6747 111.239C18.2924 111.17 17.9518 111.011 17.6527 110.763C17.3508 110.507 17.13 110.187 16.9901 109.803C16.8559 109.434 16.825 109.063 16.8976 108.688C16.9701 108.314 17.1303 107.977 17.3783 107.678C17.6157 107.374 17.9228 107.153 18.2992 107.016C18.6758 106.879 19.0565 106.849 19.4415 106.927C19.8237 106.996 20.1668 107.15 20.4708 107.387C20.7671 107.628 20.9824 107.932 21.1166 108.301Z" fill="#DCDCDC"/>
<path d="M30.4281 94.7029L29.8322 94.7814L29.6785 93.6142L12.0566 95.9339L12.2103 97.1017L11.6144 97.1802L11.2189 94.1763L12.6661 93.9855C12.4975 93.9582 12.2826 93.8917 12.0212 93.7859C11.7599 93.6802 11.5199 93.5177 11.3014 93.2991C11.0818 93.0723 10.948 92.7763 10.9 92.4116C10.837 91.9334 10.9978 91.4624 11.3822 90.9996C11.7585 90.5378 12.4085 90.118 13.3321 89.7408C14.2558 89.3635 15.5 89.0718 17.0647 88.8658C18.67 88.6542 19.9686 88.6193 20.9605 88.7611C21.9514 88.8947 22.6865 89.1525 23.1657 89.5347C23.6449 89.9174 23.9182 90.3639 23.9854 90.8747C24.0302 91.2149 23.9784 91.5104 23.8299 91.7612C23.6804 92.0032 23.5001 92.2006 23.2891 92.3521C23.0689 92.4966 22.8793 92.5915 22.7204 92.6373L29.4335 91.7535L29.2782 90.5738L29.8741 90.4953L30.4281 94.7029ZM23.2333 91.2705C23.2034 91.0437 23.044 90.8665 22.7551 90.7395C22.4581 90.6136 22.0514 90.5313 21.5348 90.492C21.0172 90.4446 20.4065 90.4424 19.7029 90.4855C18.9911 90.5296 18.2055 90.6087 17.3461 90.7215C16.5354 90.8284 15.7886 90.9516 15.1059 91.0912C14.4231 91.2302 13.8333 91.3861 13.3364 91.5589C12.8395 91.7317 12.4639 91.9171 12.2096 92.1155C11.9461 92.3069 11.8282 92.508 11.856 92.719C11.8912 92.9862 12.0549 93.1961 12.347 93.3471C12.638 93.4905 12.9851 93.5886 13.3881 93.6431C13.783 93.6982 14.1656 93.7221 14.5358 93.7145L20.4219 92.9398C20.89 92.8613 21.3487 92.7436 21.798 92.5855C22.2392 92.4285 22.5981 92.2409 22.8746 92.0229C23.1501 91.7972 23.2696 91.5464 23.2333 91.2705Z" fill="#DCDCDC"/>
<path d="M23.8192 88.5221L23.2183 88.5351L23.1924 87.3456L11.5544 87.5996L11.5804 88.7886L10.9794 88.8023L10.9152 85.8589L12.2506 85.7684C12.1438 85.746 11.9744 85.6681 11.7424 85.534C11.5105 85.3999 11.2936 85.2085 11.0919 84.9594C10.8902 84.7102 10.7854 84.4098 10.7778 84.0582C10.7689 83.6493 10.9046 83.3113 11.1851 83.0431C11.4655 82.7754 11.8455 82.571 12.3249 82.4292C12.8045 82.288 13.3385 82.2111 13.9272 82.1981C14.3278 82.1893 14.64 82.252 14.8638 82.3861C15.0794 82.5208 15.19 82.7187 15.1957 82.9804C15.2011 83.2257 15.1113 83.4198 14.9262 83.5626C14.7329 83.6978 14.4727 83.7693 14.1457 83.7763C13.9413 83.7807 13.7648 83.7518 13.6162 83.6897C13.4674 83.6193 13.3187 83.5528 13.1702 83.4907C13.0134 83.4285 12.8247 83.4002 12.6039 83.4051C12.2033 83.4138 11.9147 83.4934 11.738 83.6444C11.553 83.7878 11.4631 83.9781 11.4683 84.2147C11.4749 84.5172 11.6239 84.7844 11.9151 85.015C12.1981 85.2379 12.5618 85.4097 13.0061 85.5312C13.4423 85.6523 13.8893 85.7079 14.3471 85.6981L23.1523 85.5062L23.1255 84.2795L23.7264 84.2664L23.8192 88.5221Z" fill="#DCDCDC"/>
<path d="M24.6536 77.8916C24.6144 78.3398 24.4304 78.7546 24.1015 79.1363C23.7733 79.5102 23.3102 79.8308 22.7121 80.0985C22.114 80.3662 21.3917 80.5537 20.5451 80.66C19.6984 80.7663 18.7334 80.7723 17.65 80.6775C16.4687 80.5744 15.4749 80.3929 14.6685 80.1334C13.8628 79.8662 13.2213 79.5511 12.744 79.1897C12.2675 78.8195 11.9326 78.4248 11.7394 78.0056C11.5381 77.5858 11.4559 77.1638 11.493 76.7402C11.5294 76.3248 11.6831 75.9279 11.9543 75.5496C12.2173 75.1701 12.6156 74.8398 13.1492 74.5585C13.6828 74.2766 14.3696 74.0738 15.2095 73.9506C16.0493 73.8268 17.0599 73.817 18.2412 73.9201C19.3246 74.0149 20.2737 74.1921 21.0882 74.4522C21.9027 74.7122 22.5812 75.0262 23.1237 75.3937C23.6661 75.7617 24.0662 76.1618 24.3238 76.5947C24.5821 77.0194 24.6921 77.4522 24.6536 77.8916ZM24.0304 77.8371C24.0696 77.3895 23.5959 76.9867 22.6092 76.6296C21.6226 76.2725 20.111 76.0048 18.0744 75.8265C16.0622 75.6504 14.5759 75.6559 13.6156 75.8429C12.647 76.0288 12.1432 76.3461 12.104 76.7942C12.0641 77.25 12.5049 77.6539 13.4264 78.0056C14.3397 78.3561 15.8024 78.62 17.8146 78.7955C19.8512 78.9738 21.3864 78.9727 22.42 78.7923C23.4537 78.6118 23.9905 78.2934 24.0304 77.8371Z" fill="#DCDCDC"/>
<path d="M31.1468 75.3615C31.0639 75.7786 30.8677 76.1149 30.5585 76.3701C30.2492 76.6258 29.8653 76.7953 29.4067 76.8793C28.9481 76.9632 28.4502 76.9512 27.9128 76.8444C27.5278 76.7681 27.2462 76.6329 27.068 76.4388C26.8962 76.2545 26.835 76.0381 26.8845 75.7895C26.9339 75.5409 27.0669 75.3757 27.2833 75.2934C27.4997 75.2116 27.7563 75.2002 28.0531 75.259C28.2616 75.3005 28.4405 75.3653 28.5897 75.4537C28.7486 75.5349 28.8978 75.6232 29.0374 75.7175C29.1867 75.8058 29.3455 75.8663 29.514 75.9001C29.7465 75.9459 29.9302 75.9454 30.0648 75.8969C30.2091 75.8424 30.3125 75.7628 30.3749 75.6586C30.4454 75.5556 30.4918 75.4482 30.5141 75.3359C30.5987 74.9107 30.4002 74.5465 29.9187 74.2423C29.4453 73.9392 28.7114 73.6889 27.7169 73.4916L13.3763 70.6387L13.1298 71.8779L12.5403 71.7607L13.1457 68.717L26.7163 71.4161C27.6547 71.6031 28.428 71.8446 29.0361 72.1406C29.6458 72.4285 30.1153 72.7512 30.4444 73.1083C30.7816 73.467 30.9993 73.8399 31.0975 74.2265C31.2038 74.6141 31.2202 74.993 31.1468 75.3615ZM10.6588 69.2103C10.5854 69.5794 10.3989 69.8673 10.0992 70.0744C9.79151 70.28 9.45721 70.347 9.09631 70.2751C8.73535 70.2037 8.45611 70.0145 8.25854 69.7086C8.0529 69.4006 7.98683 69.0626 8.06021 68.6935C8.12879 68.3484 8.31617 68.0775 8.62228 67.8796C8.92038 67.6806 9.24988 67.6168 9.61078 67.6888C9.97169 67.7602 10.2558 67.9461 10.4629 68.2459C10.6621 68.5441 10.7274 68.8653 10.6588 69.2103Z" fill="#DCDCDC"/>
<path d="M28.1414 64.521C27.9643 65.0825 27.6403 65.5121 27.1693 65.8098C26.6983 66.1069 26.1258 66.2906 25.4519 66.3615C24.7702 66.4291 24.0276 66.4051 23.2239 66.289C22.4149 66.1625 21.5854 65.9652 20.7353 65.6975C19.6902 65.3677 18.8047 64.9942 18.0789 64.5766C17.3531 64.1596 16.7835 63.7223 16.37 63.266C15.9511 62.7999 15.6759 62.3398 15.5444 61.8867C15.4129 61.4337 15.4123 61.0008 15.5426 60.5876C15.6926 60.1117 15.9684 59.7399 16.3701 59.4722C16.7718 59.2045 17.2591 59.0322 17.832 58.9554C18.3996 58.8687 19.0177 58.8665 19.6863 58.9488C20.3471 59.0284 21.009 59.1729 21.6719 59.3817C21.8279 59.4307 21.98 59.4787 22.1281 59.5256C22.2685 59.5698 22.4103 59.6232 22.5536 59.6853L21.1741 64.0609L20.6008 63.8799L21.4418 61.2129C20.4046 60.8858 19.5044 60.6405 18.7414 60.4769C17.9808 60.3058 17.3758 60.2392 16.9264 60.2779C16.477 60.3161 16.2068 60.4797 16.1158 60.7681C16.0273 61.0488 16.1448 61.3563 16.4684 61.6894C16.7866 62.0127 17.3211 62.3572 18.072 62.7225C18.8252 63.0801 19.8063 63.4492 21.0152 63.8308C21.8497 64.0936 22.6396 64.3215 23.385 64.5134C24.1305 64.7058 24.7972 64.8345 25.3854 64.8999C25.976 64.9572 26.4605 64.9299 26.8389 64.8181C27.2197 64.6976 27.4654 64.4621 27.576 64.1116C27.7432 63.5811 27.7254 63.121 27.5225 62.7312C27.322 62.3338 27.083 62.0312 26.8055 61.8235L27.2566 61.4125C27.6519 61.709 27.9499 62.137 28.1504 62.698C28.3534 63.2502 28.3504 63.8581 28.1414 64.521Z" fill="#DCDCDC"/>
<path d="M31.0298 58.0372C30.8025 58.5535 30.4316 58.9395 29.9169 59.1957C29.4022 59.4519 28.7941 59.5953 28.0926 59.6259C27.3869 59.646 26.6306 59.5681 25.8238 59.3914C25.0127 59.2044 24.1992 58.9313 23.3833 58.572C22.3878 58.1343 21.5678 57.6529 20.9232 57.1279C20.2786 56.6029 19.7838 56.0724 19.4389 55.5365C19.0973 54.9935 18.8923 54.4743 18.824 53.9797C18.7591 53.4776 18.8106 53.0357 18.9786 52.654C19.1926 52.1674 19.516 51.8183 19.9486 51.6067C20.3738 51.3917 20.8488 51.2969 21.3736 51.3224C21.9018 51.3403 22.4166 51.4597 22.9181 51.6804C23.2849 51.8417 23.5376 52.0288 23.6762 52.2417C23.8073 52.4513 23.8235 52.6684 23.7247 52.8929C23.6226 53.125 23.4558 53.2705 23.2244 53.3295C22.9962 53.3809 22.7474 53.3474 22.478 53.2289C22.2834 53.1432 22.1356 53.0425 22.0347 52.9266C21.9296 52.7999 21.8266 52.6787 21.7257 52.5628C21.6173 52.4437 21.4771 52.3462 21.3049 52.2705C20.9008 52.0926 20.5478 52.0624 20.246 52.1797C19.9441 52.2971 19.7258 52.5092 19.5907 52.8161C19.4557 53.123 19.5013 53.4558 19.7277 53.8144C19.9498 54.1624 20.2911 54.5136 20.7516 54.8681C21.2121 55.2225 21.736 55.5649 22.3234 55.8947C22.9142 56.2174 23.5052 56.5086 24.0965 56.7686C24.7028 57.0352 25.3489 57.2931 26.0349 57.5411C26.7166 57.7788 27.3719 57.9642 28.001 58.0983C28.6258 58.2209 29.1636 58.2477 29.6142 58.1779C30.0681 58.101 30.3741 57.8824 30.5321 57.5231C30.7166 57.1039 30.7322 56.7135 30.5789 56.351C30.4256 55.989 30.2094 55.6881 29.9304 55.4493L30.4549 55.1707C30.7666 55.4776 31.0081 55.8833 31.1793 56.3875C31.3431 56.8885 31.2933 57.4381 31.0298 58.0372Z" fill="#DCDCDC"/>
<path d="M34.2117 52.5543C34.0482 52.8376 33.8356 53.0831 33.5741 53.2909C33.3195 53.5028 32.996 53.6134 32.6034 53.6228C32.2149 53.6252 31.7445 53.4668 31.192 53.1479L22.4069 48.0758L21.6893 49.3187L21.1687 49.0181L21.8864 47.7753C21.8782 47.5439 21.7572 47.2711 21.5233 46.9566C21.2864 46.631 20.9841 46.2959 20.6164 45.9514C20.2458 45.5958 19.8567 45.272 19.4492 44.9801L19.7681 44.4277L22.8063 46.1818L23.665 44.6946L24.1855 44.9951L23.3269 46.4823L32.845 51.9776C33.1212 52.1371 33.3436 52.1853 33.5123 52.1221C33.681 52.059 33.798 51.9707 33.8634 51.8574C33.9493 51.7087 33.9931 51.5593 33.9947 51.4092C33.9934 51.2479 33.9773 51.1205 33.9463 51.0271L34.5216 50.9627C34.5673 51.1779 34.5673 51.4234 34.5214 51.6991C34.4867 51.9718 34.3835 52.2569 34.2117 52.5543Z" fill="#DCDCDC"/>
<path d="M40.7296 43.9541L40.2864 43.5481L41.082 42.6798L28.4027 31.0614L27.6072 31.9297L27.1641 31.5236L29.2026 29.2988L36.9622 36.4091L35.6155 31.415L34.8862 32.2109L34.4431 31.8048L36.3988 29.6705L36.8419 30.0766L36.1044 30.8815L37.1577 34.3256L45.4161 37.95L46.0874 37.2174L46.5305 37.6235L43.8373 40.5627L43.3941 40.1567L44.0736 39.4151L37.5235 36.5409L37.7942 37.1715L42.3251 41.3233L42.9798 40.6088L43.4229 41.0149L40.7296 43.9541Z" fill="#DCDCDC"/>
<path d="M45.675 39.1503L45.2787 38.6985L46.2009 37.8897L38.5256 29.1377L37.6034 29.9465L37.2071 29.4945L39.5127 27.4726L47.5843 36.6765L48.5157 35.8596L48.912 36.3115L45.675 39.1503ZM37.2578 26.3339C36.9811 26.5766 36.6609 26.6888 36.2969 26.6708C35.9276 26.6466 35.6217 26.4962 35.3791 26.2195C35.1364 25.9428 35.0299 25.6229 35.0595 25.2598C35.0837 24.8905 35.2372 24.5818 35.5201 24.3338C35.7844 24.102 36.0982 24.0009 36.4613 24.0304C36.8191 24.0539 37.1192 24.2039 37.3619 24.4806C37.6045 24.7573 37.7168 25.0776 37.6987 25.4415C37.6753 25.7992 37.5283 26.0967 37.2578 26.3339Z" fill="#DCDCDC"/>
<path d="M53.8696 33.2447C53.6016 33.4324 53.3051 33.565 52.9803 33.6428C52.66 33.7273 52.32 33.6908 51.9602 33.5334C51.6072 33.3713 51.2477 33.0291 50.8818 32.5066L45.0633 24.1968L43.8877 25.02L43.543 24.5276L44.7186 23.7045C44.809 23.4914 44.8146 23.193 44.7355 22.8091C44.6584 22.4139 44.5261 21.9825 44.3384 21.5149C44.1528 21.0359 43.937 20.578 43.6911 20.1413L44.2136 19.7754L46.2258 22.6492L47.6325 21.6641L47.9773 22.1565L46.5705 23.1415L52.8745 32.1445C53.0575 32.4058 53.2387 32.5434 53.4183 32.5574C53.5978 32.5715 53.7412 32.541 53.8483 32.4659C53.989 32.3674 54.0918 32.2505 54.1567 32.1152C54.2237 31.9685 54.2629 31.8462 54.2743 31.7484L54.8227 31.9332C54.7737 32.1476 54.6695 32.37 54.5115 32.6005C54.3649 32.833 54.1509 33.0478 53.8696 33.2447Z" fill="#DCDCDC"/>
<path d="M63.6389 21.7367C63.2611 21.8932 62.8762 21.9465 62.4836 21.8966C62.0955 21.836 61.7466 21.6884 61.4369 21.4537C61.1273 21.2191 60.8961 20.9167 60.7429 20.5465C60.5892 20.1763 60.5406 19.8025 60.5968 19.4252C60.6497 19.0403 60.7936 18.6931 61.0286 18.3834C61.2706 18.0707 61.5803 17.8361 61.9581 17.6796C62.3212 17.5294 62.6908 17.4824 63.0681 17.5385C63.4453 17.5947 63.7888 17.7401 64.0984 17.9747C64.4125 18.1987 64.6463 18.4958 64.7995 18.866C64.9533 19.2361 64.9996 19.6153 64.9391 20.0033C64.8857 20.3882 64.7472 20.7376 64.5237 21.0516C64.2963 21.3581 64.0014 21.5865 63.6389 21.7367Z" fill="#DCDCDC"/>
</svg>
